
<svg width="160px" height="160px" viewBox="0 0 160 160" version="1.1" xmlns="http://www.w3.org/2000/svg" xmlns:xlink="http://www.w3.org/1999/xlink">
    <g id="Page-1" stroke="none" stroke-width="1" fill="none" fill-rule="evenodd">
        <g id="email_blue" transform="translate(-640.000000, -322.000000)">
            <g id="Group-2" transform="translate(640.000000, 322.000000)">
                <g id="pot-(1)">
                    <path d="M80,0 C35.8175,0 0,35.8175 0,80 C0,124.1825 35.8175,160 80,160 C124.1825,160 160,124.1825 160,80 C160,35.8175 124.1825,0 80,0 Z" id="Path" fill="#5F8AE4"></path>
                    <path d="M24.7871875,64.8190625 L24.511875,64.8190625 C28.2734375,64.90375 30.414375,66.7728125 31.4271875,69.803125 L31.4353125,69.803125 C30.4496875,66.8415625 28.3871875,64.9840625 24.7871875,64.8190625 Z M131.278437,64.8190625 L130.998437,64.8190625 C127.215937,64.9728125 125.184062,66.6078125 124.281562,69.803125 L124.28625,69.803125 C125.21125,66.5359375 127.324687,64.905625 131.278437,64.8190625 Z" id="Shape" fill="#466575" fill-rule="nonzero"></path>
                </g>
                <g id="gift" transform="translate(14.814815, 14.814815)">
                    <path d="M108.094203,8.22539607 C105.585154,3.07321471 100.360132,0 94.1362225,0 C79.9509055,0 69.8901173,15.3261737 64.9532094,24.9972427 C60.0037749,15.3345248 49.9596889,0.0974298142 35.802209,0.0974298142 C26.8214999,0.0974298142 20.3094767,6.4957849 20.3094767,15.1721418 C20.3094767,30.5595571 34.9861184,40.5999315 64.4901858,40.5999315 C93.9942533,40.5999315 109.624779,27.6974404 109.624779,15.2983366 C109.620604,12.8375379 109.170107,10.4217425 108.094203,8.22539607 Z M38.3033716,23.4991433 C34.0081086,20.9330275 32.4775326,18.058848 32.4775326,16.2155687 C32.4775326,13.8610149 34.9824067,12.1555292 38.433278,12.1555292 C46.7482167,12.1555292 57.3852326,25.8133333 60.9618347,32.4960907 C51.3803084,31.7816054 41.5756215,25.4560907 38.3033716,23.4991433 Z M96.8684328,18.4040279 C94.7124502,22.7563569 83.3122341,31.4285383 69.0698511,32.4919151 C72.6631554,25.8091578 83.3201213,12.1513536 91.5051536,12.1513536 C94.6720865,12.1513536 96.4907763,13.5237222 97.1240701,14.806548 C97.6274575,15.830025 97.5425544,17.0437222 96.8684328,18.4040279 Z" id="Shape" fill="#BF392C" fill-rule="nonzero"></path>
                    <path d="M129.929152,40.6198814 L0.00974298142,40.6198814 L0.00974298142,73.1076209 L4.06978252,73.1076209 L4.06978252,129.938895 L125.869113,129.938895 L125.869113,73.1080849 L129.929152,73.1080849 C129.928689,73.1080849 129.929152,40.6198814 129.929152,40.6198814 Z" id="Path" fill="#EFC75E"></path>
                    <polygon id="Path" fill="#D7B354" points="4.06978252 73.1039093 125.869113 73.1039093 125.869113 81.2239884 4.06978252 81.2239884"></polygon>
                    <path d="M56.8493687,40.6198814 L73.0890629,40.6198814 L73.0890629,129.939359 L56.8493687,129.939359 C56.8493687,129.939359 56.8493687,40.6198814 56.8493687,40.6198814 Z" id="Path" fill="#BF392C"></path>
                    <rect id="Rectangle" fill="#AC3327" x="56.8493687" y="73.1039093" width="16.2396942" height="8.12007908"></rect>
                </g>
            </g>
        </g>
    </g>
</svg>