
<svg width="50px" height="60px" viewBox="0 0 50 60" version="1.1" xmlns="http://www.w3.org/2000/svg" xmlns:xlink="http://www.w3.org/1999/xlink">
    <g id="Page-1" stroke="none" stroke-width="1" fill="none" fill-rule="evenodd">
        <g id="list_requests" transform="translate(-625.000000, -427.000000)" fill="#4979D5">
            <g id="notification-(2)" transform="translate(625.000000, 427.000000)">
                <path d="M49.7452103,50.4498832 L45.4635514,43.3171729 C43.4897196,40.025 42.4454439,36.2567757 42.4454439,32.4162383 L42.4454439,26.1682243 C42.4454439,16.5508178 34.6174065,8.72278037 25,8.72278037 C15.3825935,8.72278037 7.55455607,16.5508178 7.55455607,26.1682243 L7.55455607,32.4162383 C7.55455607,36.2567757 6.51028037,40.025 4.5364486,43.3171729 L0.25478972,50.4498832 C0.0230140187,50.8336449 0.0179906542,51.3147196 0.237383178,51.7035047 C0.459228972,52.094743 0.875350467,52.3365654 1.3239486,52.3365654 L48.6759346,52.3365654 C49.1245327,52.3365654 49.540771,52.0948598 49.7625,51.7035047 C49.9818925,51.3146028 49.976986,50.8336449 49.7452103,50.4498832 Z M3.52464953,49.8442757 L6.67231308,44.5981308 C8.88037383,40.9196262 10.046729,36.7078271 10.046729,32.4162383 L10.046729,26.1682243 C10.046729,17.9214953 16.753271,11.2149533 25,11.2149533 C33.246729,11.2149533 39.953271,17.9214953 39.953271,26.1682243 L39.953271,32.4162383 C39.953271,36.7078271 41.1196262,40.9196262 43.3252336,44.5981308 L46.4753505,49.8442757 L3.52464953,49.8442757 Z" id="Shape" fill-rule="nonzero"></path>
                <path d="M25,0 C22.2510514,0 20.0155374,2.23551402 20.0155374,4.98446262 L20.0155374,9.96892523 C20.0155374,10.6566589 20.5738318,11.2149533 21.2616822,11.2149533 C21.9495327,11.2149533 22.5078271,10.6566589 22.5078271,9.96880841 L22.5078271,4.98446262 C22.5078271,3.60876168 23.6242991,2.49228972 25,2.49228972 C26.3757009,2.49228972 27.4921729,3.60876168 27.4921729,4.98446262 L27.4921729,9.96892523 C27.4921729,10.6566589 28.0504673,11.2149533 28.7383178,11.2149533 C29.4261682,11.2149533 29.9844626,10.6566589 29.9844626,9.96880841 L29.9844626,4.98446262 C29.9844626,2.23551402 27.7489486,0 25,0 Z" id="Path"></path>
                <path d="M30.3931075,50.4598131 C30.0417056,49.8667056 29.2815421,49.6723131 28.6859813,50.0136682 C28.0903037,50.3626168 27.8910047,51.1276869 28.2398364,51.7207944 C28.563785,52.2716121 28.740771,52.9320093 28.740771,53.5824766 C28.740771,55.6435748 27.0635514,57.3207944 25.0024533,57.3207944 C22.9413551,57.3207944 21.2641355,55.6435748 21.2641355,53.5824766 C21.2641355,52.9320093 21.4411215,52.2716121 21.7650701,51.7207944 C22.1114486,51.1251168 21.9121495,50.3625 21.3189252,50.0136682 C20.7183411,49.6721963 19.9606308,49.8665888 19.6117991,50.4598131 C19.0609813,51.4018692 18.7693925,52.4809579 18.7693925,53.5825935 C18.7695093,57.0192757 21.5632009,59.8130841 25,59.8130841 C28.4367991,59.8130841 31.2304907,57.0192757 31.235514,53.5825935 C31.235514,52.4809579 30.9439252,51.4018692 30.3931075,50.4598131 Z" id="Path"></path>
            </g>
        </g>
    </g>
</svg>