
<svg width="70px" height="43px" viewBox="0 0 70 43" version="1.1" xmlns="http://www.w3.org/2000/svg" xmlns:xlink="http://www.w3.org/1999/xlink">
    <g id="Page-1" stroke="none" stroke-width="1" fill="none" fill-rule="evenodd">
        <g id="payment_add_card" transform="translate(-529.000000, -509.000000)">
            <g id="mastercard-(2)" transform="translate(529.000000, 509.627093)">
                <path d="M70,21.1111111 C70,32.6666667 60.6666667,42.1111111 49,42.1111111 C37.4444444,42.1111111 28,32.6666667 28,21.1111111 C28,9.55555556 37.3333333,0.111111111 48.8888889,0.111111111 C60.6666667,0.111111111 70,9.55555556 70,21.1111111 Z" id="Path" fill="#FFB600"></path>
                <path d="M49,0.111111111 C60.5555556,0.111111111 70,9.55555556 70,21.1111111 C70,32.6666667 60.6666667,42.1111111 49,42.1111111 C37.4444444,42.1111111 28,32.6666667 28,21.1111111" id="Path" fill="#F7981D"></path>
                <path d="M49,0.111111111 C60.5555556,0.111111111 70,9.55555556 70,21.1111111 C70,32.6666667 60.6666667,42.1111111 49,42.1111111" id="Path" fill="#FF8500"></path>
                <path d="M20.7777778,0.111111111 C9.33333333,0.222222222 0,9.55555556 0,21.1111111 C0,32.6666667 9.33333333,42.1111111 21,42.1111111 C26.4444444,42.1111111 31.3333333,40 35.1111111,36.6666667 C35.8888889,36 36.5555556,35.2222222 37.2222222,34.4444444 L32.8888889,34.4444444 C32.3333333,33.7777778 31.7777778,33 31.3333333,32.3333333 L38.7777778,32.3333333 C39.2222222,31.6666667 39.6666667,30.8888889 40,30.1111111 L30.1111111,30.1111111 C29.7777778,29.4444444 29.4444444,28.6666667 29.2222222,27.8888889 L40.7777778,27.8888889 C41.4444444,25.7777778 41.8888889,23.5555556 41.8888889,21.2222222 C41.8888889,19.6666667 41.6666667,18.2222222 41.4444444,16.7777778 L28.5555556,16.7777778 C28.6666667,16 28.8888889,15.3333333 29.1111111,14.5555556 L40.6666667,14.5555556 C40.4444444,13.7777778 40.1111111,13 39.7777778,12.3333333 L30,12.3333333 C30.3333333,11.5555556 30.7777778,10.8888889 31.2222222,10.1111111 L38.6666667,10.1111111 C38.2222222,9.33333333 37.6666667,8.55555556 37,7.88888889 L32.8888889,7.88888889 C33.5555556,7.11111111 34.2222222,6.44444444 35,5.77777778 C31.3333333,2.33333333 26.3333333,0.333333333 20.8888889,0.333333333 C20.8888889,0.111111111 20.8888889,0.111111111 20.7777778,0.111111111 Z" id="Path" fill="#FF5050"></path>
                <path d="M0,21.1111111 C0,32.6666667 9.33333333,42.1111111 21,42.1111111 C26.4444444,42.1111111 31.3333333,40 35.1111111,36.6666667 C35.8888889,36 36.5555556,35.2222222 37.2222222,34.4444444 L32.8888889,34.4444444 C32.3333333,33.7777778 31.7777778,33 31.3333333,32.3333333 L38.7777778,32.3333333 C39.2222222,31.6666667 39.6666667,30.8888889 40,30.1111111 L30.1111111,30.1111111 C29.7777778,29.4444444 29.4444444,28.6666667 29.2222222,27.8888889 L40.7777778,27.8888889 C41.4444444,25.7777778 41.8888889,23.5555556 41.8888889,21.2222222 C41.8888889,19.6666667 41.6666667,18.2222222 41.4444444,16.7777778 L28.5555556,16.7777778 C28.6666667,16 28.8888889,15.3333333 29.1111111,14.5555556 L40.6666667,14.5555556 C40.4444444,13.7777778 40.1111111,13 39.7777778,12.3333333 L30,12.3333333 C30.3333333,11.5555556 30.7777778,10.8888889 31.2222222,10.1111111 L38.6666667,10.1111111 C38.2222222,9.33333333 37.6666667,8.55555556 37,7.88888889 L32.8888889,7.88888889 C33.5555556,7.11111111 34.2222222,6.44444444 35,5.77777778 C31.3333333,2.33333333 26.3333333,0.333333333 20.8888889,0.333333333 L20.7777778,0.333333333" id="Path" fill="#E52836"></path>
                <path d="M21,42.1111111 C26.4444444,42.1111111 31.3333333,40 35.1111111,36.6666667 C35.8888889,36 36.5555556,35.2222222 37.2222222,34.4444444 L32.8888889,34.4444444 C32.3333333,33.7777778 31.7777778,33 31.3333333,32.3333333 L38.7777778,32.3333333 C39.2222222,31.6666667 39.6666667,30.8888889 40,30.1111111 L30.1111111,30.1111111 C29.7777778,29.4444444 29.4444444,28.6666667 29.2222222,27.8888889 L40.7777778,27.8888889 C41.4444444,25.7777778 41.8888889,23.5555556 41.8888889,21.2222222 C41.8888889,19.6666667 41.6666667,18.2222222 41.4444444,16.7777778 L28.5555556,16.7777778 C28.6666667,16 28.8888889,15.3333333 29.1111111,14.5555556 L40.6666667,14.5555556 C40.4444444,13.7777778 40.1111111,13 39.7777778,12.3333333 L30,12.3333333 C30.3333333,11.5555556 30.7777778,10.8888889 31.2222222,10.1111111 L38.6666667,10.1111111 C38.2222222,9.33333333 37.6666667,8.55555556 37,7.88888889 L32.8888889,7.88888889 C33.5555556,7.11111111 34.2222222,6.44444444 35,5.77777778 C31.3333333,2.33333333 26.3333333,0.333333333 20.8888889,0.333333333 L20.7777778,0.333333333" id="Path" fill="#CB2026"></path>
                <g id="Group" transform="translate(1.944444, 15.555556)" fill="#FFFFFF">
                    <path d="M26.5,10.8888889 L26.8333333,9 C26.7222222,9 26.5,9.11111111 26.2777778,9.11111111 C25.5,9.11111111 25.3888889,8.66666667 25.5,8.44444444 L26.1666667,4.55555556 L27.3888889,4.55555556 L27.7222222,2.44444444 L26.6111111,2.44444444 L26.8333333,1.11111111 L24.6111111,1.11111111 C24.6111111,1.11111111 23.2777778,8.44444444 23.2777778,9.33333333 C23.2777778,10.6666667 24.0555556,11.2222222 25.0555556,11.2222222 C25.7222222,11.2222222 26.2777778,11 26.5,10.8888889 Z" id="Path"></path>
                    <path d="M27.2777778,7.33333333 C27.2777778,10.4444444 29.3888889,11.2222222 31.1666667,11.2222222 C32.8333333,11.2222222 33.5,10.8888889 33.5,10.8888889 L33.9444444,8.77777778 C33.9444444,8.77777778 32.7222222,9.33333333 31.6111111,9.33333333 C29.1666667,9.33333333 29.6111111,7.55555556 29.6111111,7.55555556 L34.1666667,7.55555556 C34.1666667,7.55555556 34.5,6.11111111 34.5,5.55555556 C34.5,4.11111111 33.7222222,2.33333333 31.2777778,2.33333333 C28.9444444,2.11111111 27.2777778,4.55555556 27.2777778,7.33333333 Z M31.1666667,4.11111111 C32.3888889,4.11111111 32.1666667,5.55555556 32.1666667,5.66666667 L29.7222222,5.66666667 C29.7222222,5.55555556 29.9444444,4.11111111 31.1666667,4.11111111 Z" id="Shape" fill-rule="nonzero"></path>
                    <path d="M45.2777778,10.8888889 L45.7222222,8.44444444 C45.7222222,8.44444444 44.6111111,9 43.8333333,9 C42.2777778,9 41.6111111,7.77777778 41.6111111,6.44444444 C41.6111111,3.77777778 42.9444444,2.33333333 44.5,2.33333333 C45.6111111,2.33333333 46.5,3 46.5,3 L46.8333333,0.666666667 C46.8333333,0.666666667 45.5,0.111111111 44.2777778,0.111111111 C41.7222222,0.111111111 39.1666667,2.33333333 39.1666667,6.55555556 C39.1666667,9.33333333 40.5,11.2222222 43.1666667,11.2222222 C44.0555556,11.2222222 45.2777778,10.8888889 45.2777778,10.8888889 Z" id="Path"></path>
                    <path d="M14.2777778,2.11111111 C12.7222222,2.11111111 11.6111111,2.55555556 11.6111111,2.55555556 L11.2777778,4.44444444 C11.2777778,4.44444444 12.2777778,4 13.7222222,4 C14.5,4 15.1666667,4.11111111 15.1666667,4.77777778 C15.1666667,5.22222222 15.0555556,5.33333333 15.0555556,5.33333333 C15.0555556,5.33333333 14.3888889,5.33333333 14.0555556,5.33333333 C12.1666667,5.33333333 10.0555556,6.11111111 10.0555556,8.66666667 C10.0555556,10.6666667 11.3888889,11.1111111 12.1666667,11.1111111 C13.7222222,11.1111111 14.3888889,10.1111111 14.5,10.1111111 L14.3888889,11 L16.3888889,11 L17.2777778,4.88888889 C17.2777778,2.22222222 15.0555556,2.11111111 14.2777778,2.11111111 Z M14.7222222,7.11111111 C14.7222222,7.44444444 14.5,9.22222222 13.1666667,9.22222222 C12.5,9.22222222 12.2777778,8.66666667 12.2777778,8.33333333 C12.2777778,7.77777778 12.6111111,7 14.2777778,7 C14.6111111,7.11111111 14.7222222,7.11111111 14.7222222,7.11111111 Z" id="Shape" fill-rule="nonzero"></path>
                    <path d="M19.3888889,11.1111111 C19.9444444,11.1111111 22.7222222,11.2222222 22.7222222,8.22222222 C22.7222222,5.44444444 20.0555556,6 20.0555556,4.88888889 C20.0555556,4.33333333 20.5,4.11111111 21.2777778,4.11111111 C21.6111111,4.11111111 22.8333333,4.22222222 22.8333333,4.22222222 L23.1666667,2.22222222 C23.1666667,2.22222222 22.3888889,2 21.0555556,2 C19.3888889,2 17.7222222,2.66666667 17.7222222,4.88888889 C17.7222222,7.44444444 20.5,7.22222222 20.5,8.22222222 C20.5,8.88888889 19.7222222,9 19.1666667,9 C18.1666667,9 17.1666667,8.66666667 17.1666667,8.66666667 L16.8333333,10.6666667 C16.9444444,10.8888889 17.5,11.1111111 19.3888889,11.1111111 Z" id="Path"></path>
                    <path d="M63.7222222,0.333333333 L63.2777778,3.33333333 C63.2777778,3.33333333 62.3888889,2.22222222 61.1666667,2.22222222 C59.1666667,2.22222222 57.3888889,4.66666667 57.3888889,7.55555556 C57.3888889,9.33333333 58.2777778,11.2222222 60.1666667,11.2222222 C61.5,11.2222222 62.2777778,10.3333333 62.2777778,10.3333333 L62.1666667,11.1111111 L64.3888889,11.1111111 L66.0555556,0.444444444 L63.7222222,0.333333333 Z M62.7222222,6.22222222 C62.7222222,7.44444444 62.1666667,9 60.9444444,9 C60.1666667,9 59.7222222,8.33333333 59.7222222,7.22222222 C59.7222222,5.44444444 60.5,4.33333333 61.5,4.33333333 C62.2777778,4.33333333 62.7222222,4.88888889 62.7222222,6.22222222 Z" id="Shape" fill-rule="nonzero"></path>
                    <polygon id="Path" points="2.16666667 11 3.5 3 3.72222222 11 5.27777778 11 8.16666667 3 6.94444444 11 9.27777778 11 11.0555556 0.333333333 7.38888889 0.333333333 5.16666667 6.88888889 5.05555556 0.333333333 1.83333333 0.333333333 0.0555555556 11"></polygon>
                    <path d="M36.6111111,11 C37.2777778,7.33333333 37.3888889,4.33333333 38.9444444,4.88888889 C39.1666667,3.44444444 39.5,2.88888889 39.7222222,2.33333333 C39.7222222,2.33333333 39.6111111,2.33333333 39.2777778,2.33333333 C38.2777778,2.33333333 37.5,3.66666667 37.5,3.66666667 L37.7222222,2.44444444 L35.6111111,2.44444444 L34.1666667,11.1111111 L36.6111111,11.1111111 L36.6111111,11 Z" id="Path"></path>
                    <path d="M50.3888889,2.11111111 C48.8333333,2.11111111 47.7222222,2.55555556 47.7222222,2.55555556 L47.3888889,4.44444444 C47.3888889,4.44444444 48.3888889,4 49.8333333,4 C50.6111111,4 51.2777778,4.11111111 51.2777778,4.77777778 C51.2777778,5.22222222 51.1666667,5.33333333 51.1666667,5.33333333 C51.1666667,5.33333333 50.5,5.33333333 50.1666667,5.33333333 C48.2777778,5.33333333 46.1666667,6.11111111 46.1666667,8.66666667 C46.1666667,10.6666667 47.5,11.1111111 48.2777778,11.1111111 C49.8333333,11.1111111 50.5,10.1111111 50.6111111,10.1111111 L50.5,11 L52.5,11 L53.3888889,4.88888889 C53.5,2.22222222 51.1666667,2.11111111 50.3888889,2.11111111 Z M50.9444444,7.11111111 C50.9444444,7.44444444 50.7222222,9.22222222 49.3888889,9.22222222 C48.7222222,9.22222222 48.5,8.66666667 48.5,8.33333333 C48.5,7.77777778 48.8333333,7 50.5,7 C50.8333333,7.11111111 50.8333333,7.11111111 50.9444444,7.11111111 Z" id="Shape" fill-rule="nonzero"></path>
                    <path d="M55.2777778,11 C55.9444444,7.33333333 56.0555556,4.33333333 57.6111111,4.88888889 C57.8333333,3.44444444 58.1666667,2.88888889 58.3888889,2.33333333 C58.3888889,2.33333333 58.2777778,2.33333333 57.9444444,2.33333333 C56.9444444,2.33333333 56.1666667,3.66666667 56.1666667,3.66666667 L56.3888889,2.44444444 L54.2777778,2.44444444 L52.8333333,11.1111111 L55.2777778,11.1111111 L55.2777778,11 Z" id="Path"></path>
                </g>
                <g id="Group" transform="translate(1.944444, 15.555556)" fill="#DCE5E5">
                    <path d="M23.0555556,9.33333333 C23.0555556,10.6666667 23.8333333,11.2222222 24.8333333,11.2222222 C25.6111111,11.2222222 26.2777778,11 26.5,10.8888889 L26.8333333,9 C26.7222222,9 26.5,9.11111111 26.2777778,9.11111111 C25.5,9.11111111 25.3888889,8.66666667 25.5,8.44444444 L26.1666667,4.55555556 L27.3888889,4.55555556 L27.7222222,2.44444444 L26.6111111,2.44444444 L26.8333333,1.11111111" id="Path"></path>
                    <path d="M28.3888889,7.33333333 C28.3888889,10.4444444 29.3888889,11.2222222 31.1666667,11.2222222 C32.8333333,11.2222222 33.5,10.8888889 33.5,10.8888889 L33.9444444,8.77777778 C33.9444444,8.77777778 32.7222222,9.33333333 31.6111111,9.33333333 C29.1666667,9.33333333 29.6111111,7.55555556 29.6111111,7.55555556 L34.1666667,7.55555556 C34.1666667,7.55555556 34.5,6.11111111 34.5,5.55555556 C34.5,4.11111111 33.7222222,2.33333333 31.2777778,2.33333333 C28.9444444,2.11111111 28.3888889,4.55555556 28.3888889,7.33333333 Z M31.1666667,4.11111111 C32.3888889,4.11111111 32.6111111,5.55555556 32.6111111,5.66666667 L29.7222222,5.66666667 C29.7222222,5.55555556 29.9444444,4.11111111 31.1666667,4.11111111 Z" id="Shape" fill-rule="nonzero"></path>
                    <path d="M45.2777778,10.8888889 L45.7222222,8.44444444 C45.7222222,8.44444444 44.6111111,9 43.8333333,9 C42.2777778,9 41.6111111,7.77777778 41.6111111,6.44444444 C41.6111111,3.77777778 42.9444444,2.33333333 44.5,2.33333333 C45.6111111,2.33333333 46.5,3 46.5,3 L46.8333333,0.666666667 C46.8333333,0.666666667 45.5,0.111111111 44.2777778,0.111111111 C41.7222222,0.111111111 40.2777778,2.33333333 40.2777778,6.55555556 C40.2777778,9.33333333 40.5,11.2222222 43.1666667,11.2222222 C44.0555556,11.2222222 45.2777778,10.8888889 45.2777778,10.8888889 Z" id="Path"></path>
                    <path d="M11.2777778,4.55555556 C11.2777778,4.55555556 12.2777778,4.11111111 13.7222222,4.11111111 C14.5,4.11111111 15.1666667,4.22222222 15.1666667,4.88888889 C15.1666667,5.33333333 15.0555556,5.44444444 15.0555556,5.44444444 C15.0555556,5.44444444 14.3888889,5.44444444 14.0555556,5.44444444 C12.1666667,5.44444444 10.0555556,6.22222222 10.0555556,8.77777778 C10.0555556,10.7777778 11.3888889,11.2222222 12.1666667,11.2222222 C13.7222222,11.2222222 14.3888889,10.2222222 14.5,10.2222222 L14.3888889,11.1111111 L16.3888889,11.1111111 L17.2777778,5 C17.2777778,2.44444444 15.0555556,2.33333333 14.1666667,2.33333333 L11.2777778,4.55555556 Z M15.8333333,7.11111111 C15.8333333,7.44444444 14.5,9.22222222 13.1666667,9.22222222 C12.5,9.22222222 12.2777778,8.66666667 12.2777778,8.33333333 C12.2777778,7.77777778 12.6111111,7 14.2777778,7 C14.6111111,7.11111111 15.8333333,7.11111111 15.8333333,7.11111111 Z" id="Shape" fill-rule="nonzero"></path>
                    <path d="M16.9444444,10.8888889 C16.9444444,10.8888889 17.6111111,11.1111111 19.5,11.1111111 C20.0555556,11.1111111 22.8333333,11.2222222 22.8333333,8.22222222 C22.8333333,5.44444444 20.1666667,6 20.1666667,4.88888889 C20.1666667,4.33333333 20.6111111,4.11111111 21.3888889,4.11111111 C21.7222222,4.11111111 22.9444444,4.22222222 22.9444444,4.22222222 L23.2777778,2.22222222 C23.2777778,2.22222222 22.5,2 21.1666667,2 C19.5,2 18.9444444,2.66666667 18.9444444,4.88888889 C18.9444444,7.44444444 20.6111111,7.22222222 20.6111111,8.22222222 C20.6111111,8.88888889 19.8333333,9 19.2777778,9" id="Path"></path>
                    <path d="M63.2777778,3.33333333 C63.2777778,3.33333333 62.3888889,2.22222222 61.1666667,2.22222222 C59.1666667,2.22222222 58.5,4.66666667 58.5,7.55555556 C58.5,9.33333333 58.2777778,11.2222222 60.1666667,11.2222222 C61.5,11.2222222 62.2777778,10.3333333 62.2777778,10.3333333 L62.1666667,11.1111111 L64.3888889,11.1111111 L66.0555556,0.444444444 L63.2777778,3.33333333 Z M63.1666667,6.22222222 C63.1666667,7.44444444 62.1666667,9 60.9444444,9 C60.1666667,9 59.7222222,8.33333333 59.7222222,7.22222222 C59.7222222,5.44444444 60.5,4.33333333 61.5,4.33333333 C62.2777778,4.33333333 63.1666667,4.88888889 63.1666667,6.22222222 Z" id="Shape" fill-rule="nonzero"></path>
                    <polygon id="Path" points="2.16666667 11 3.5 3 3.72222222 11 5.27777778 11 8.16666667 3 6.94444444 11 9.27777778 11 11.0555556 0.333333333 8.27777778 0.333333333 5.16666667 6.88888889 5.05555556 0.333333333 3.83333333 0.333333333 0.0555555556 11"></polygon>
                    <path d="M34.2777778,11 L36.6111111,11 C37.2777778,7.33333333 37.3888889,4.33333333 38.9444444,4.88888889 C39.1666667,3.44444444 39.5,2.88888889 39.7222222,2.33333333 C39.7222222,2.33333333 39.6111111,2.33333333 39.2777778,2.33333333 C38.2777778,2.33333333 37.5,3.66666667 37.5,3.66666667 L37.7222222,2.44444444" id="Path"></path>
                    <path d="M47.3888889,4.55555556 C47.3888889,4.55555556 48.3888889,4.11111111 49.8333333,4.11111111 C50.6111111,4.11111111 51.2777778,4.22222222 51.2777778,4.88888889 C51.2777778,5.33333333 51.1666667,5.44444444 51.1666667,5.44444444 C51.1666667,5.44444444 50.5,5.44444444 50.1666667,5.44444444 C48.2777778,5.44444444 46.1666667,6.22222222 46.1666667,8.77777778 C46.1666667,10.7777778 47.5,11.2222222 48.2777778,11.2222222 C49.8333333,11.2222222 50.5,10.2222222 50.6111111,10.2222222 L50.5,11.1111111 L52.5,11.1111111 L53.3888889,5 C53.3888889,2.44444444 51.1666667,2.33333333 50.2777778,2.33333333 L47.3888889,4.55555556 Z M51.9444444,7.11111111 C51.9444444,7.44444444 50.6111111,9.22222222 49.2777778,9.22222222 C48.6111111,9.22222222 48.3888889,8.66666667 48.3888889,8.33333333 C48.3888889,7.77777778 48.7222222,7 50.3888889,7 C50.8333333,7.11111111 51.9444444,7.11111111 51.9444444,7.11111111 Z" id="Shape" fill-rule="nonzero"></path>
                    <path d="M52.9444444,11 L55.2777778,11 C55.9444444,7.33333333 56.0555556,4.33333333 57.6111111,4.88888889 C57.8333333,3.44444444 58.1666667,2.88888889 58.3888889,2.33333333 C58.3888889,2.33333333 58.2777778,2.33333333 57.9444444,2.33333333 C56.9444444,2.33333333 56.1666667,3.66666667 56.1666667,3.66666667 L56.3888889,2.44444444" id="Path"></path>
                </g>
            </g>
        </g>
    </g>
</svg>