
<svg width="64px" height="44px" viewBox="0 0 64 44" version="1.1" xmlns="http://www.w3.org/2000/svg" xmlns:xlink="http://www.w3.org/1999/xlink">
    <g id="Page-1" stroke="none" stroke-width="1" fill="none" fill-rule="evenodd">
        <g id="payment_add_card" transform="translate(-454.000000, -618.000000)">
            <g id="amex" transform="translate(454.000000, 618.000000)">
                <path d="M3.99691438,0.0051369863 L59.9545925,0.0051369863 C62.1609506,0.0051369863 63.9515068,1.68369863 63.9515068,3.75390411 L63.9515068,39.350137 C63.9515068,41.4184932 62.1609506,43.0970548 59.9545925,43.0970548 L3.99691438,43.0970548 C1.78858357,43.0972603 0,41.4184932 0,39.3503425 L0,3.75390411 C0,1.68369863 1.79055627,0.0051369863 3.99691438,0.0051369863 Z" id="Path" fill="#26A6D1"></path>
                <path d="M12.6671918,14.9930137 L6.74691781,28.0943836 L13.8343151,28.0943836 L14.7129452,26.0054795 L16.7213014,26.0054795 L17.5999315,28.0943836 L25.4011644,28.0943836 L25.4011644,26.5000685 L26.0963014,28.0943836 L30.1317123,28.0943836 L30.8268493,26.4663699 L30.8268493,28.0943836 L47.0513014,28.0943836 L49.0241096,26.059726 L50.8713699,28.0943836 L59.204589,28.1112329 L53.2656164,21.580274 L59.204589,14.9930137 L51.0006164,14.9930137 L49.0802055,16.9900685 L47.2910959,14.9930137 L29.6410274,14.9930137 L28.125411,18.374589 L26.5742466,14.9930137 L19.5016438,14.9930137 L19.5016438,16.5330822 L18.714863,14.9930137 C18.714863,14.9930137 12.6671918,14.9930137 12.6671918,14.9930137 Z M14.0385616,16.8534247 L17.4932877,16.8534247 L21.4202055,25.7375342 L21.4202055,16.8534247 L25.204726,16.8534247 L28.2378082,23.2232877 L31.0331507,16.8534247 L34.7987671,16.8534247 L34.7987671,26.2545205 L32.5074658,26.2545205 L32.4887671,18.8878767 L29.1482877,26.2545205 L27.0986301,26.2545205 L23.7394521,18.8878767 L23.7394521,26.2545205 L19.0257534,26.2545205 L18.1321233,24.1469178 L13.3041781,24.1469178 L12.4123973,26.2526712 L9.88684932,26.2526712 C9.88684932,26.2526712 14.0385616,16.8534247 14.0385616,16.8534247 Z M36.8950685,16.8534247 L46.2119178,16.8534247 L49.0615068,19.9315068 L52.0029452,16.8534247 L54.8525342,16.8534247 L50.5228767,21.5784247 L54.8525342,26.2489726 L51.8736986,26.2489726 L49.0241096,23.135137 L46.0676712,26.2489726 L36.8950685,26.2489726 L36.8950685,16.8534247 Z M15.7191781,18.4440411 L14.1285616,22.1985616 L17.3079452,22.1985616 L15.7191781,18.4440411 Z M39.1958219,18.7999315 L39.1958219,20.5160959 L44.2785616,20.5160959 L44.2785616,22.4289041 L39.1958219,22.4289041 L39.1958219,24.3024658 L44.8968493,24.3024658 L47.5458904,21.5428767 L45.0092466,18.7982877 L39.1958219,18.7982877 L39.1958219,18.7999315 Z" id="Shape" fill="#FFFFFF" fill-rule="nonzero"></path>
            </g>
        </g>
    </g>
</svg>