
<svg width="64px" height="41px" viewBox="0 0 64 41" version="1.1" xmlns="http://www.w3.org/2000/svg" xmlns:xlink="http://www.w3.org/1999/xlink">
    <g id="Page-1" stroke="none" stroke-width="1" fill="none" fill-rule="evenodd">
        <g id="payment_add_card" transform="translate(-535.000000, -587.000000)">
            <g id="Card-Details" transform="translate(152.000000, 539.000000)">
                <g id="Card-Number" transform="translate(2.000000, 0.000000)">
                    <g id="Visa-Logo" transform="translate(381.000000, 48.000000)">
                        <rect id="Rectangle-4" fill="#F7F7F7" x="0" y="0" width="63.9677419" height="40" rx="4"></rect>
                        <path d="M4.00146875,0 C1.79151858,0 0,1.79535615 0,4 L0,8 L63.9677419,8 L63.9677419,4 C63.9677419,1.790861 62.1732704,0 59.9662732,0 L4.00146875,0 Z" id="Rectangle-5" fill="#575DC1"></path>
                        <path d="M0,33 L0,37 C0,39.209139 1.79447154,41 4.00146875,41 L59.9662732,41 C62.1762234,41 63.9677419,39.2046438 63.9677419,37 L63.9677419,33 L0,33 Z" id="Rectangle-6" fill="#EBAA3E"></path>
                        <g id="Group" transform="translate(15.230415, 15.000000)" fill="#5565AF">
                            <path d="M2.95888371,9.585341 C3.39699705,8.37214024 3.70453967,7.59463679 3.88582795,7.25283066 L7.52777999,0 L10.1920702,0 L3.88582795,12.049721 L1.07046413,12.049721 L0,0 L2.48731836,0 L2.91679893,7.25283066 C2.93838087,7.49969064 2.95025093,7.86681574 2.95025093,8.34893118 C2.93730177,8.91544319 2.92111532,9.32793145 2.89953338,9.585341 L2.95888371,9.585341 L2.95888371,9.585341 Z" id="Shape"></path>
                            <polygon id="Shape" points="9.71187212 12.049721 12.3427104 0 14.9141983 0 12.28336 12.049721"></polygon>
                            <path d="M22.7365717,8.66330842 C22.7365717,9.81321175 22.3189612,10.71942 21.4891357,11.3872079 C20.657152,12.0549958 19.5294957,12.3883622 18.1083251,12.3883622 C16.8652055,12.3883622 15.8659618,12.1415023 15.1073566,11.6467273 L15.1073566,9.38806401 C16.1907699,9.98094995 17.1986464,10.2784479 18.1255907,10.2784479 C18.7536251,10.2784479 19.2467724,10.1634575 19.6007161,9.92820209 C19.9546599,9.69505655 20.1316318,9.37645948 20.1316318,8.96819105 C20.1316318,8.7329356 20.0938634,8.52510903 20.0183266,8.34576631 C19.9427899,8.1685335 19.832722,8.00185026 19.6935185,7.84677156 C19.5521568,7.69274781 19.2046876,7.41423911 18.6478736,7.00597068 C17.8720029,6.46055781 17.3259799,5.92463956 17.0119627,5.38977627 C16.6957873,4.85702289 16.5393182,4.28312618 16.5393182,3.66703118 C16.5393182,2.95809995 16.7119737,2.3261806 17.0616011,1.76705329 C17.4090703,1.21003589 17.9043758,0.77644849 18.5496758,0.46523612 C19.1928175,0.155078707 19.9319989,0 20.7715363,0 C21.9898367,0 23.106702,0.272178954 24.1188949,0.815481906 L23.1995043,2.73550399 C22.3232776,2.32934547 21.5139549,2.12573873 20.7715363,2.12573873 C20.3032082,2.12573873 19.922287,2.24916872 19.6255354,2.49708366 C19.3266255,2.74394364 19.1787893,3.07203533 19.1787893,3.47819385 C19.1787893,3.81367023 19.2715916,4.10694833 19.4571963,4.35591823 C19.6428009,4.60594308 20.0582532,4.93719964 20.7046323,5.34863294 C21.3833842,5.78855009 21.8937971,6.27383039 22.2304753,6.8034189 C22.5671535,7.33617228 22.7365717,7.95437719 22.7365717,8.66330842 L22.7365717,8.66330842 Z" id="Shape"></path>
                            <path d="M30.7963465,9.23087539 L26.8090835,9.23087539 L25.3587772,12.099304 L22.661035,12.099304 L29.1183508,0 L32.2628392,0 L33.5016424,12.099304 L30.9981376,12.099304 L30.7963465,9.23087539 L30.7963465,9.23087539 Z M30.6690131,7.08825734 L30.4499564,4.20400439 C30.3927643,3.48452359 30.3657868,2.7893068 30.3657868,2.11835403 L30.3657868,1.82191106 C30.1175946,2.4812593 29.811131,3.17964096 29.4463963,3.91494612 L27.8612029,7.08825734 L30.6690131,7.08825734 L30.6690131,7.08825734 Z" id="Shape"></path>
                        </g>
                    </g>
                </g>
            </g>
        </g>
    </g>
</svg>