
<svg width="70px" height="43px" viewBox="0 0 70 43" version="1.1" xmlns="http://www.w3.org/2000/svg" xmlns:xlink="http://www.w3.org/1999/xlink">
    <g id="Page-1" stroke="none" stroke-width="1" fill="none" fill-rule="evenodd">
        <g id="payment_add_card" transform="translate(-529.000000, -560.000000)">
            <g id="mastercard-(1)" transform="translate(529.000000, 560.000000)">
                <path d="M35,36.6666667 C39.2222222,32.8888889 41.8888889,27.3333333 41.8888889,21.1111111 C41.8888889,14.8888889 39.2222222,9.44444444 35,5.55555556 C31.3333333,2.22222222 26.3333333,0.111111111 21,0.111111111 C9.44444444,0.111111111 0,9.55555556 0,21.1111111 C0,32.6666667 9.44444444,42 21,42 C26.3333333,42.1111111 31.3333333,40 35,36.6666667 Z" id="Path" fill="#07A9E2"></path>
                <path d="M0,21.1111111 C0,32.6666667 9.44444444,42 21,42 C26.4444444,42 31.3333333,40 35,36.5555556 C39.2222222,32.7777778 41.8888889,27.2222222 41.8888889,21 C41.8888889,14.7777778 39.2222222,9.44444444 35,5.55555556 C31.3333333,2.22222222 26.3333333,0.111111111 21,0.111111111" id="Path" fill="#009DDD"></path>
                <path d="M35,5.55555556 C31.3333333,2.22222222 26.3333333,0.111111111 21,0.111111111 C20.6666667,0.111111111 20.3333333,0.111111111 20,0.111111111 C13.4444444,4.88888889 9.22222222,12.5555556 9.22222222,21.1111111 C9.22222222,29.6666667 13.4444444,37.3333333 19.8888889,42 C20.2222222,42 20.5555556,42 20.8888889,42 C26.3333333,42 31.2222222,40 34.8888889,36.5555556 C39.1111111,32.7777778 41.7777778,27.2222222 41.7777778,21 C41.7777778,14.7777778 39.2222222,9.44444444 35,5.55555556 Z" id="Path" fill="#0284CC"></path>
                <path d="M49.1111111,0.111111111 C43.6666667,0.111111111 38.7777778,2.11111111 35,5.55555556 C34.2222222,6.22222222 33.5555556,7 32.8888889,7.77777778 L37.1111111,7.77777778 C37.6666667,8.44444444 38.2222222,9.22222222 38.6666667,10 L31.2222222,10 C30.7777778,10.7777778 30.3333333,11.4444444 30,12.2222222 L39.8888889,12.2222222 C40.2222222,13 40.5555556,13.6666667 40.7777778,14.4444444 L29.2222222,14.4444444 C29,15.2222222 28.7777778,15.8888889 28.5555556,16.6666667 L41.4444444,16.6666667 C41.7777778,18.1111111 41.8888889,19.5555556 41.8888889,21.1111111 C41.8888889,23.4444444 41.5555556,25.6666667 40.7777778,27.7777778 L29.2222222,27.7777778 C29.4444444,28.5555556 29.7777778,29.2222222 30.1111111,30 L40,30 C39.6666667,30.7777778 39.2222222,31.5555556 38.7777778,32.2222222 L31.3333333,32.2222222 C31.7777778,33 32.3333333,33.7777778 32.8888889,34.4444444 L37.1111111,34.4444444 C36.4444444,35.2222222 35.7777778,36 35,36.6666667 C38.7777778,40 43.6666667,42.1111111 49.1111111,42.1111111 C60.6666667,42.1111111 70,32.7777778 70,21.2222222 C70,9.55555556 60.6666667,0.111111111 49.1111111,0.111111111 Z" id="Path" fill="#FF2957"></path>
                <path d="M49.1111111,0.111111111 C43.6666667,0.111111111 38.7777778,2.11111111 35,5.55555556 C34.2222222,6.22222222 33.5555556,7 32.8888889,7.77777778 L37.1111111,7.77777778 C37.6666667,8.44444444 38.2222222,9.22222222 38.6666667,10 L31.2222222,10 C30.7777778,10.7777778 30.3333333,11.4444444 30,12.2222222 L39.8888889,12.2222222 C40.2222222,13 40.5555556,13.6666667 40.7777778,14.4444444 L29.2222222,14.4444444 C29,15.2222222 28.7777778,15.8888889 28.5555556,16.6666667 L41.4444444,16.6666667 C41.7777778,18.1111111 41.8888889,19.5555556 41.8888889,21.1111111 C41.8888889,23.4444444 41.5555556,25.6666667 40.7777778,27.7777778 L29.2222222,27.7777778 C29.4444444,28.5555556 29.7777778,29.2222222 30.1111111,30 L40,30 C39.6666667,30.7777778 39.2222222,31.5555556 38.7777778,32.2222222 L31.3333333,32.2222222 C31.7777778,33 32.3333333,33.7777778 32.8888889,34.4444444 L37.1111111,34.4444444 C36.4444444,35.2222222 35.7777778,36 35,36.6666667 C38.7777778,40 43.6666667,42.1111111 49.1111111,42.1111111 C60.6666667,42.1111111 70,32.7777778 70,21.2222222" id="Path" fill="#ED1C2E"></path>
                <path d="M35,36.6666667 C39.2222222,32.8888889 41.8888889,27.3333333 41.8888889,21.1111111 C41.8888889,14.8888889 39.2222222,9.44444444 35,5.55555556 L35,36.6666667 Z" id="Path" fill="#0466B5"></path>
                <path d="M62.7777778,25.6666667 C62.7777778,25.3333333 63.1111111,25 63.4444444,25 C63.7777778,25 64.1111111,25.3333333 64.1111111,25.6666667 C64.1111111,26 63.7777778,26.3333333 63.4444444,26.3333333 C63.1111111,26.3333333 62.7777778,26 62.7777778,25.6666667 Z M63.4444444,26.2222222 C63.7777778,26.2222222 63.8888889,26 63.8888889,25.6666667 C63.8888889,25.3333333 63.6666667,25.2222222 63.4444444,25.2222222 C63.1111111,25.2222222 62.8888889,25.4444444 62.8888889,25.6666667 C62.8888889,25.8888889 63.2222222,26.2222222 63.4444444,26.2222222 Z M63.4444444,25.8888889 L63.3333333,25.8888889 L63.3333333,25.3333333 L63.5555556,25.3333333 C63.6666667,25.3333333 63.6666667,25.3333333 63.6666667,25.3333333 L63.7777778,25.4444444 C63.7777778,25.5555556 63.7777778,25.5555556 63.6666667,25.5555556 L63.7777778,25.7777778 L63.6666667,25.7777778 L63.5555556,25.5555556 L63.4444444,25.5555556 L63.4444444,25.8888889 Z M63.4444444,25.5555556 C63.5555556,25.5555556 63.5555556,25.5555556 63.5555556,25.5555556 C63.5555556,25.5555556 63.5555556,25.5555556 63.5555556,25.4444444 L63.4444444,25.4444444 L63.4444444,25.5555556 Z" id="Shape" fill="#FFFFFF" fill-rule="nonzero"></path>
                <path d="M35,5.55555556 C34.2222222,6.22222222 33.5555556,7 32.8888889,7.77777778 L37.1111111,7.77777778 C37.6666667,8.44444444 38.2222222,9.22222222 38.6666667,10 L31.2222222,10 C30.7777778,10.7777778 30.3333333,11.4444444 30,12.2222222 L39.8888889,12.2222222 C40.2222222,13 40.5555556,13.6666667 40.7777778,14.4444444 L29.2222222,14.4444444 C29,15.2222222 28.7777778,15.8888889 28.5555556,16.6666667 L41.4444444,16.6666667 C41.7777778,18.1111111 41.8888889,19.5555556 41.8888889,21.1111111 C41.8888889,23.4444444 41.5555556,25.6666667 40.7777778,27.7777778 L29.2222222,27.7777778 C29.4444444,28.5555556 29.7777778,29.2222222 30.1111111,30 L40,30 C39.6666667,30.7777778 39.2222222,31.5555556 38.7777778,32.2222222 L31.3333333,32.2222222 C31.7777778,33 32.3333333,33.7777778 32.8888889,34.4444444 L37.1111111,34.4444444 C36.4444444,35.2222222 35.7777778,36 35,36.6666667 C38.7777778,40 43.6666667,42.1111111 49.1111111,42.1111111 C49.4444444,42.1111111 49.7777778,42.1111111 50.1111111,42.1111111 C56.5555556,37.4444444 60.7777778,29.7777778 60.7777778,21.2222222 C60.7777778,12.6666667 56.5555556,5 50.1111111,0.333333333 C49.7777778,0.333333333 49.4444444,0.333333333 49.1111111,0.333333333 C43.6666667,0.111111111 38.7777778,2.22222222 35,5.55555556 Z" id="Path" fill="#D1094B"></path>
                <polygon id="Path" fill="#FFFFFF" points="18.3333333 26.3333333 15.6666667 26.3333333 17.2222222 18.2222222 13.6666667 26.3333333 11.3333333 26.3333333 10.8888889 18.2222222 9.33333333 26.3333333 7 26.3333333 9 15.6666667 13.1111111 15.6666667 13.3333333 22.3333333 16.2222222 15.6666667 20.4444444 15.6666667"></polygon>
                <g id="Group" transform="translate(15.555556, 15.694444)" fill="#DCE5E5">
                    <path d="M0.222222222,5.97222222 L1.77777778,2.52777778 L0.555555556,8.97222222 C0.666666667,9.52777778 0.777777778,10.1944444 1,10.75 L2.77777778,10.75 L4.77777778,0.0833333333 L0.888888889,0.0833333333 C0.444444444,1.75 0.111111111,3.63888889 0.111111111,5.52777778 C0.222222222,5.63888889 0.222222222,5.75 0.222222222,5.97222222 Z" id="Path"></path>
                    <path d="M31.8888889,10.5277778 C31.1111111,10.75 30.6666667,10.8611111 30,10.8611111 C28.6666667,10.8611111 28,10.1944444 28,8.97222222 C28,8.75 28,8.52777778 28.1111111,8.19444444 L28.2222222,7.30555556 L28.3333333,6.63888889 L29.5555556,0.0833333333 L32.1111111,0.0833333333 L31.7777778,2.08333333 L33.1111111,2.08333333 L32.7777778,4.08333333 L31.4444444,4.08333333 L30.7777778,7.63888889 C30.7777778,7.75 30.6666667,7.97222222 30.6666667,7.97222222 C30.6666667,8.41666667 31,8.63888889 31.5555556,8.63888889 C31.8888889,8.63888889 32.1111111,8.63888889 32.2222222,8.52777778 L31.8888889,10.5277778 Z" id="Path"></path>
                    <path d="M39.5555556,2.08333333 C39.3333333,1.97222222 39.3333333,1.97222222 39.2222222,1.97222222 C39.1111111,1.97222222 39,1.97222222 39,1.86111111 C38.8888889,1.86111111 38.8888889,1.86111111 38.6666667,1.86111111 C37.7777778,1.86111111 37.2222222,2.19444444 36.4444444,3.30555556 L36.6666667,1.97222222 L34.3333333,1.97222222 L32.7777778,10.6388889 L35.4444444,10.6388889 C36.3333333,5.30555556 36.7777778,4.41666667 38,4.41666667 C38.1111111,4.41666667 38.2222222,4.41666667 38.3333333,4.41666667 L38.6666667,4.52777778 L39.5555556,2.08333333 Z" id="Path"></path>
                    <path d="M21.5555556,4.75 C21.5555556,5.86111111 22.2222222,6.63888889 23.5555556,7.08333333 C24.6666667,7.52777778 24.7777778,7.63888889 24.7777778,8.08333333 C24.7777778,8.63888889 24.3333333,8.86111111 23.2222222,8.86111111 C22.4444444,8.86111111 21.6666667,8.75 20.8888889,8.52777778 L20.5555556,10.5277778 L20.6666667,10.5277778 L21.1111111,10.6388889 C21.2222222,10.6388889 21.5555556,10.6388889 21.7777778,10.6388889 C22.4444444,10.75 22.8888889,10.75 23.2222222,10.75 C26,10.75 27.3333333,9.86111111 27.3333333,7.86111111 C27.3333333,6.63888889 26.7777778,5.97222222 25.4444444,5.41666667 C24.3333333,4.97222222 24.2222222,4.86111111 24.2222222,4.52777778 C24.2222222,4.08333333 24.6666667,3.86111111 25.5555556,3.86111111 C26,3.86111111 26.7777778,3.86111111 27.4444444,3.97222222 L27.7777778,1.97222222 C27.1111111,1.86111111 26.1111111,1.86111111 25.4444444,1.86111111 C22.5555556,1.86111111 21.5555556,3.19444444 21.5555556,4.75 Z" id="Path"></path>
                    <path d="M11.2222222,10.6388889 L9.11111111,10.6388889 L9.11111111,9.75 C8.44444444,10.4166667 7.55555556,10.75 6.33333333,10.75 C4.88888889,10.75 4,9.75 4,8.41666667 C4,6.30555556 5.66666667,5.08333333 8.55555556,5.08333333 C8.88888889,5.08333333 9.22222222,5.08333333 9.66666667,5.08333333 C9.77777778,4.75 9.77777778,4.63888889 9.77777778,4.52777778 C9.77777778,3.97222222 9.33333333,3.75 8.11111111,3.75 C7.33333333,3.75 6.55555556,3.86111111 6,3.97222222 L5.66666667,4.08333333 L5.44444444,4.08333333 L5.77777778,2.19444444 C7.11111111,1.86111111 7.88888889,1.75 8.88888889,1.75 C11.1111111,1.75 12.3333333,2.63888889 12.3333333,4.30555556 C12.3333333,4.75 12.3333333,5.08333333 12.1111111,6.08333333 L11.5555556,9.19444444 L11.4444444,9.75 L11.3333333,10.1944444 L11.3333333,10.5277778 L11.2222222,10.6388889 Z M9.33333333,6.75 C9,6.75 8.88888889,6.75 8.77777778,6.75 C7.33333333,6.75 6.55555556,7.19444444 6.55555556,8.08333333 C6.55555556,8.63888889 6.88888889,8.97222222 7.44444444,8.97222222 C8.55555556,8.97222222 9.33333333,8.08333333 9.33333333,6.75 Z" id="Shape" fill-rule="nonzero"></path>
                    <path d="M19.7777778,10.4166667 C18.8888889,10.6388889 18,10.75 17.1111111,10.75 C14.2222222,10.75 12.6666667,9.41666667 12.6666667,6.86111111 C12.6666667,3.86111111 14.5555556,1.75 17.2222222,1.75 C19.3333333,1.75 20.6666667,2.97222222 20.6666667,4.86111111 C20.6666667,5.52777778 20.5555556,6.08333333 20.3333333,6.97222222 L15.1111111,6.97222222 C15.1111111,7.08333333 15.1111111,7.19444444 15.1111111,7.30555556 C15.1111111,8.30555556 15.8888889,8.86111111 17.3333333,8.86111111 C18.3333333,8.86111111 19.1111111,8.75 20,8.30555556 L19.7777778,10.4166667 Z M18.4444444,5.30555556 C18.4444444,5.19444444 18.4444444,4.97222222 18.4444444,4.86111111 C18.4444444,4.19444444 18,3.75 17.2222222,3.75 C16.4444444,3.75 15.7777778,4.30555556 15.5555556,5.30555556 L18.4444444,5.30555556 Z" id="Shape" fill-rule="nonzero"></path>
                </g>
                <g id="Group" transform="translate(53.888889, 17.361111)" fill="#FFFFFF">
                    <path d="M9.33333333,5.08333333 C8.88888889,7.97222222 6.88888889,9.19444444 4.22222222,9.19444444 C1.33333333,9.19444444 0.111111111,7.41666667 0.111111111,5.19444444 C0.111111111,2.19444444 2.11111111,0.0833333333 5.22222222,0.0833333333 C7.88888889,0.0833333333 9.33333333,1.86111111 9.33333333,3.97222222 C9.33333333,4.52777778 9.33333333,4.52777778 9.33333333,5.08333333 Z M6.55555556,3.97222222 C6.55555556,3.08333333 6.22222222,2.30555556 5.11111111,2.30555556 C3.77777778,2.30555556 3,3.86111111 3,5.30555556 C3,6.41666667 3.55555556,7.19444444 4.44444444,7.19444444 C5,7.19444444 6.22222222,6.41666667 6.44444444,5.08333333 C6.55555556,4.63888889 6.55555556,4.30555556 6.55555556,3.97222222 Z" id="Shape" fill-rule="nonzero"></path>
                    <path d="M0.222222222,6.19444444 C0.333333333,5.41666667 0.444444444,4.52777778 0.444444444,3.75 C0.444444444,3.63888889 0.444444444,3.52777778 0.444444444,3.52777778 C0.333333333,4.08333333 0.222222222,4.63888889 0.222222222,5.30555556 C0.111111111,5.52777778 0.111111111,5.86111111 0.222222222,6.19444444 Z" id="Path"></path>
                </g>
            </g>
        </g>
    </g>
</svg>