
<svg width="159px" height="39px" viewBox="0 0 159 39" version="1.1" xmlns="http://www.w3.org/2000/svg" xmlns:xlink="http://www.w3.org/1999/xlink">
    <defs>
        <path d="M27.5830079,36.3925781 C27.2574854,36.8483096 26.8831402,37.198241 26.459961,37.4423828 C26.0367818,37.6865247 25.6298848,37.8574214 25.2392579,37.9550781 C24.7835264,38.0852871 24.2952501,38.1341147 23.7744141,38.1015625 C23.5791006,38.1015625 23.3675142,38.0527349 23.1396485,37.9550781 C22.944335,37.8899736 22.7327486,37.8004563 22.5048829,37.6865234 C22.2770172,37.5725906 22.0817066,37.4016938 21.9189454,37.1738281 C21.4632139,35.5462158 21.056317,33.9674556 20.6982423,32.4375 C20.3401675,30.9075444 20.0309258,29.5403706 19.7705079,28.3359375 C19.4449854,26.9361909 19.1682955,25.6178447 18.9404298,24.3808594 C18.0615191,24.3483071 16.7513109,24.3401692 15.0097657,24.3564453 C13.2682205,24.3727214 11.3883565,24.4785146 9.37011725,24.6738281 C8.75162457,26.6269629 8.26334821,28.2708267 7.9052735,29.6054687 C7.54719879,30.9401108 7.28678473,32.0468706 7.1240235,32.9257812 C6.96126227,33.8046919 6.89615875,34.5289685 6.928711,35.0986328 C6.96126325,35.6682971 7.05891852,36.1647114 7.22167975,36.5878906 C6.7659483,37.0436221 6.31836163,37.3772776 5.87890631,37.5888672 C5.43945099,37.8004568 5.04069196,37.9388018 4.68261725,38.0039062 C4.25943805,38.101563 3.85254108,38.1341147 3.46191413,38.1015625 C2.94107819,38.036458 2.51790534,37.9469407 2.19238288,37.8330078 C1.86686041,37.719075 1.63086017,37.5400403 1.48437506,37.2958984 C1.33788996,37.0517566 1.28906232,36.7018252 1.33789069,36.2460937 C1.38671906,35.7903623 1.50878815,35.1881548 1.70410163,34.4394531 C1.8994151,33.7884082 2.26562238,32.6246829 2.80273444,30.9482422 C3.3398465,29.2718015 3.95019196,27.3593857 4.63378913,25.2109375 C3.39680377,25.3085942 2.44466486,25.2434907 1.77734381,25.015625 C1.11002277,24.7877593 0.646160219,24.1692759 0.38574225,23.1601562 C0.906578188,22.997395 1.46809601,22.8427742 2.07031256,22.6962891 C2.67252912,22.549804 3.25032282,22.411459 3.803711,22.28125 C4.42220368,22.151041 5.05696295,22.0371099 5.70800788,21.9394531 C6.39160504,19.7910049 7.09146784,17.6751406 7.80761725,15.5917969 C8.52376666,13.5084531 9.1910777,11.6367271 9.80957038,9.9765625 L12.6416016,2.40820312 C12.7067061,2.21288965 13.0484996,2.00130322 13.6669923,1.7734375 C14.2854849,1.54557178 14.9690718,1.35839917 15.7177735,1.21191406 C16.4664752,1.06542896 17.1826138,0.9921875 17.866211,0.9921875 C18.5498082,0.9921875 18.9892569,1.13867041 19.1845704,1.43164062 C19.2822271,2.11523779 19.4205721,2.9615835 19.5996094,3.97070312 C19.7786468,4.97982275 19.9495435,5.95637549 20.1123048,6.90039062 C20.3076182,8.00716699 20.5354805,9.14647852 20.7958985,10.3183594 C21.0888687,11.9459717 21.4062484,13.7525942 21.7480469,15.7382812 C22.0898455,17.7239683 22.5211563,19.8398325 23.0419923,22.0859375 C23.5628282,24.3320425 24.1813116,26.6594932 24.897461,29.0683594 C25.6136104,31.4772256 26.5087838,33.9186074 27.5830079,36.3925781 Z M14.0087891,21.109375 C15.050461,21.0768228 15.9130826,21.0605469 16.5966798,21.0605469 C17.2802769,21.0605469 17.8662086,21.0768228 18.3544923,21.109375 L18.2080079,20.3769531 C18.0126944,19.17252 17.8092459,17.8867256 17.5976563,16.5195312 C17.3860667,15.1523369 17.1744803,13.801439 16.9628907,12.4667969 C16.7513011,11.1321548 16.5478526,9.86263623 16.3525391,8.65820312 C16.1572256,7.45377002 15.9944669,6.39583789 15.8642579,5.484375 C15.5387354,6.3307334 15.1643902,7.34797583 14.741211,8.53613281 C14.3180318,9.72428979 13.8623072,11.0182222 13.3740235,12.4179688 C12.8857398,13.8177153 12.3893255,15.2825444 11.8847657,16.8125 C11.3802059,18.3424556 10.8837916,19.8561123 10.3955079,21.3535156 C10.9814483,21.2884111 11.5673799,21.2395835 12.1533204,21.2070312 C12.7392608,21.174479 13.3577442,21.1419272 14.0087891,21.109375 Z M37.1044923,24.7226562 C37.8206417,24.9830742 38.5042286,25.2272124 39.1552735,25.4550781 C39.8063184,25.6829438 40.3759742,25.9596338 40.8642579,26.2851562 C41.3525416,26.6106787 41.7431627,26.9931619 42.0361329,27.4326172 C42.3291031,27.8720725 42.475586,28.4173145 42.475586,29.0683594 C42.475586,29.8496133 42.3046893,30.5820278 41.9628907,31.265625 C41.6210921,31.9492222 41.1246778,32.5514297 40.4736329,33.0722656 C39.822588,33.5931016 39.0332078,34.0081365 38.1054688,34.3173828 C37.1777298,34.6266292 36.1442115,34.78125 35.0048829,34.78125 C33.7353453,34.78125 32.7099649,34.6591809 31.928711,34.4150391 C31.1474571,34.1708972 30.5452496,33.8860693 30.1220704,33.5605469 C29.6988912,33.2350244 29.4222012,32.9095068 29.2919923,32.5839844 C29.1617833,32.2584619 29.0966798,31.9980479 29.0966798,31.8027344 C29.0966798,31.4121074 29.1780591,30.9807966 29.3408204,30.5087891 C29.5035816,30.0367815 29.8128233,29.5240913 30.2685548,28.9707031 C30.4638682,28.7428374 30.6754547,28.531251 30.9033204,28.3359375 C31.3590518,27.9453105 31.8147764,27.7011724 32.2705079,27.6035156 C32.2054034,28.3522173 32.2949207,28.9625627 32.5390626,29.4345703 C32.7832044,29.9065779 33.108722,30.2727852 33.5156251,30.5332031 C33.9225281,30.7936211 34.3782527,30.9726558 34.8828126,31.0703125 C35.3873724,31.1679692 35.8675108,31.2167969 36.3232423,31.2167969 C36.7789737,31.2167969 37.2428362,31.1516934 37.7148438,31.0214844 C38.1868514,30.8912754 38.6181622,30.7203787 39.0087891,30.5087891 C39.3994161,30.2971995 39.7167957,30.0530613 39.9609376,29.7763672 C40.2050794,29.4996731 40.3271485,29.1985693 40.3271485,28.8730469 C40.3271485,28.5149722 40.1806656,28.2220063 39.8876954,27.9941406 C39.5947252,27.7662749 39.2285179,27.5791023 38.7890626,27.4326172 C38.3496072,27.2861321 37.8776068,27.1722009 37.3730469,27.0908203 C36.8684871,27.0094397 36.3883487,26.9199224 35.9326173,26.8222656 C35.4768858,26.7246089 34.8665403,26.5862639 34.1015626,26.4072266 C33.3365848,26.2281892 32.5878943,25.9433613 31.8554688,25.5527344 C31.1230433,25.1621074 30.488284,24.6412793 29.9511719,23.9902344 C29.4140599,23.3391895 29.1455079,22.4765679 29.1455079,21.4023438 C29.1455079,20.1653584 29.4628875,19.0830125 30.0976563,18.1552734 C30.7324251,17.2275344 31.5136673,16.4462922 32.4414063,15.8115234 C33.3691453,15.1767546 34.353836,14.6966162 35.3955079,14.3710938 C36.4371798,14.0455713 37.3649048,13.8828125 38.178711,13.8828125 C38.6018902,13.8828125 39.0576148,13.9397781 39.5458985,14.0537109 C40.0341822,14.1676438 40.4899068,14.3629543 40.913086,14.6396484 C41.3362652,14.9163425 41.6861966,15.2825498 41.9628907,15.7382812 C42.2395848,16.1940127 42.3779298,16.7799443 42.3779298,17.4960938 C42.3779298,18.2122432 42.3209642,18.7900369 42.2070313,19.2294922 C42.0930985,19.6689475 41.9303397,20.010741 41.7187501,20.2548828 C41.5071605,20.4990247 41.2548843,20.6536455 40.9619141,20.71875 C40.6689439,20.7838545 40.3271505,20.8164062 39.9365235,20.8164062 C39.6761055,20.8164062 39.4319673,20.7838545 39.2041016,20.71875 C39.0087881,20.6536455 38.7972017,20.588542 38.569336,20.5234375 C38.3414703,20.458333 38.1298839,20.3444019 37.9345704,20.1816406 C38.2600928,19.7910137 38.512369,19.4166685 38.6914063,19.0585938 C38.8704437,18.700519 38.959961,18.2610703 38.959961,17.7402344 C38.959961,17.2845029 38.8378919,16.877606 38.5937501,16.5195312 C38.3496082,16.1614565 37.9508492,15.9824219 37.397461,15.9824219 C36.8115206,15.9824219 36.2500027,16.096353 35.7128907,16.3242188 C35.1757786,16.5520845 34.7037781,16.8613262 34.2968751,17.2519531 C33.889972,17.6425801 33.5644544,18.0901667 33.3203126,18.5947266 C33.0761707,19.0992864 32.9541016,19.6445283 32.9541016,20.2304688 C32.9541016,21.1093794 33.2877571,21.9394492 33.9550782,22.7207031 C34.6223992,23.501957 35.6721934,24.1692681 37.1044923,24.7226562 Z M55.1708985,22.3300781 C55.8544957,22.6230483 56.5055308,23.0869109 57.1240235,23.7216797 C57.7425162,24.3564485 58.1331373,25.3085874 58.2958985,26.578125 C58.4261075,27.6849014 58.6051422,28.67773 58.8330079,29.5566406 C59.0608736,30.4355513 59.3863912,31.2249314 59.8095704,31.9248047 C60.2327496,32.624678 60.7942674,33.2431614 61.4941407,33.7802734 C62.194014,34.3173855 63.0973253,34.781248 64.2041016,35.171875 C63.9111314,35.432293 63.5612,35.6438794 63.1542969,35.8066406 C62.7473939,35.9694019 62.3649107,36.083333 62.006836,36.1484375 C61.5836568,36.2786465 61.1442081,36.34375 60.6884766,36.34375 C59.6142525,36.4414067 58.735355,36.3030618 58.0517579,35.9287109 C57.3681607,35.5543601 56.8310567,35.0091182 56.4404298,34.2929688 C56.0498028,33.5768193 55.756837,32.7467495 55.5615235,31.8027344 C55.36621,30.8587192 55.2197271,29.8821665 55.1220704,28.8730469 C55.0895181,28.4498677 55.0406905,28.0104189 54.975586,27.5546875 C54.9104815,27.0989561 54.7965504,26.6595073 54.6337891,26.2363281 C54.4710279,25.8131489 54.2513035,25.4225278 53.9746094,25.0644531 C53.6979153,24.7063784 53.3479839,24.4296885 52.9248048,24.234375 C52.2086553,24.7877632 51.5494822,25.2679016 50.9472657,25.6748047 C50.3450491,26.0817078 49.8160831,26.4153633 49.3603516,26.6757812 C49.3929039,28.4336025 49.4824212,29.8821558 49.6289063,31.0214844 C49.7753914,32.160813 49.9788399,32.9257793 50.2392579,33.3164062 C50.0113922,33.4791675 49.7835298,33.6175125 49.5556641,33.7314453 C49.3277984,33.8453782 49.1324879,33.9348955 48.9697266,34 C48.7418609,34.0976567 48.5302745,34.1627603 48.334961,34.1953125 C47.6839161,34.390626 47.1061224,34.3662122 46.6015626,34.1220703 C46.0970027,33.8779285 45.8284507,33.2350312 45.7958985,32.1933594 L45.5029298,3.67773438 C45.5029298,3.41731641 45.7552059,3.1487644 46.2597657,2.87207031 C46.7643255,2.59537622 47.3258433,2.37565186 47.944336,2.21289062 C48.5628287,2.05012939 49.1243465,1.96875 49.6289063,1.96875 C50.1334661,1.96875 50.3694664,2.11523291 50.3369141,2.40820312 C50.2392574,4.65430811 50.1416021,6.77017236 50.0439454,8.75585938 C49.9462886,10.7415464 49.8649092,12.4993413 49.7998048,14.0292969 C49.702148,15.8196704 49.6207686,17.4472583 49.5556641,18.9121094 C49.4905596,19.79102 49.4498699,20.6373657 49.4335938,21.4511719 C49.4173177,22.264978 49.3929039,23.0462202 49.3603516,23.7949219 C49.9788443,23.3066382 50.6298795,22.7695342 51.3134766,22.1835938 C51.9970738,21.5976533 52.6481089,20.9466182 53.2666016,20.2304688 C53.8850943,19.5143193 54.4059224,18.7412151 54.8291016,17.9111328 C55.2522808,17.0810505 55.496419,16.1940151 55.5615235,15.25 C55.9195982,14.989582 56.2858055,14.7698577 56.6601563,14.5908203 C57.0345071,14.411783 57.3681627,14.273438 57.6611329,14.1757812 C58.0192076,14.0455723 58.3447252,13.9804688 58.6376954,13.9804688 C59.386397,13.9479165 59.8258458,14.1106753 59.9560548,14.46875 C60.0537115,14.729168 60.0455735,15.1116511 59.9316407,15.6162109 C59.8177078,16.1207708 59.5735696,16.7229783 59.1992188,17.4228516 C58.824868,18.1227249 58.3121778,18.8876912 57.6611329,19.7177734 C57.010088,20.5478557 56.1800181,21.4186152 55.1708985,22.3300781 Z M89.1064454,36.3925781 C88.7809229,36.8483096 88.4065777,37.198241 87.9833985,37.4423828 C87.5602193,37.6865247 87.1533223,37.8574214 86.7626954,37.9550781 C86.3069639,38.0852871 85.8186876,38.1341147 85.2978516,38.1015625 C85.1025381,38.1015625 84.8909517,38.0527349 84.663086,37.9550781 C84.4677725,37.8899736 84.2561861,37.8004563 84.0283204,37.6865234 C83.8004547,37.5725906 83.6051441,37.4016938 83.4423829,37.1738281 C82.9866514,35.5462158 82.5797545,33.9674556 82.2216798,32.4375 C81.863605,30.9075444 81.5543633,29.5403706 81.2939454,28.3359375 C80.9684229,26.9361909 80.691733,25.6178447 80.4638673,24.3808594 C79.5849566,24.3483071 78.2747484,24.3401692 76.5332032,24.3564453 C74.791658,24.3727214 72.911794,24.4785146 70.8935548,24.6738281 C70.2750621,26.6269629 69.7867857,28.2708267 69.428711,29.6054687 C69.0706363,30.9401108 68.8102222,32.0468706 68.647461,32.9257812 C68.4846998,33.8046919 68.4195963,34.5289685 68.4521485,35.0986328 C68.4847007,35.6682971 68.582356,36.1647114 68.7451173,36.5878906 C68.2893858,37.0436221 67.8417991,37.3772776 67.4023438,37.5888672 C66.9628885,37.8004568 66.5641295,37.9388018 66.2060548,38.0039062 C65.7828756,38.101563 65.3759786,38.1341147 64.9853516,38.1015625 C64.4645157,38.036458 64.0413428,37.9469407 63.7158204,37.8330078 C63.3902979,37.719075 63.1542977,37.5400403 63.0078126,37.2958984 C62.8613275,37.0517566 62.8124998,36.7018252 62.8613282,36.2460937 C62.9101566,35.7903623 63.0322256,35.1881548 63.2275391,34.4394531 C63.4228526,33.7884082 63.7890599,32.6246829 64.3261719,30.9482422 C64.863284,29.2718015 65.4736295,27.3593857 66.1572266,25.2109375 C64.9202413,25.3085942 63.9681024,25.2434907 63.3007813,25.015625 C62.6334603,24.7877593 62.1695977,24.1692759 61.9091798,23.1601562 C62.4300157,22.997395 62.9915335,22.8427742 63.5937501,22.6962891 C64.1959666,22.549804 64.7737603,22.411459 65.3271485,22.28125 C65.9456412,22.151041 66.5804005,22.0371099 67.2314454,21.9394531 C67.9150425,19.7910049 68.6149053,17.6751406 69.3310548,15.5917969 C70.0472042,13.5084531 70.7145152,11.6367271 71.3330079,9.9765625 L74.1650391,2.40820312 C74.2301436,2.21288965 74.5719371,2.00130322 75.1904298,1.7734375 C75.8089224,1.54557178 76.4925093,1.35839917 77.241211,1.21191406 C77.9899127,1.06542896 78.7060513,0.9921875 79.3896485,0.9921875 C80.0732457,0.9921875 80.5126944,1.13867041 80.7080079,1.43164062 C80.8056646,2.11523779 80.9440096,2.9615835 81.1230469,3.97070312 C81.3020843,4.97982275 81.472981,5.95637549 81.6357423,6.90039062 C81.8310557,8.00716699 82.058918,9.14647852 82.319336,10.3183594 C82.6123062,11.9459717 82.9296859,13.7525942 83.2714844,15.7382812 C83.613283,17.7239683 84.0445938,19.8398325 84.5654298,22.0859375 C85.0862657,24.3320425 85.7047491,26.6594932 86.4208985,29.0683594 C87.1370479,31.4772256 88.0322213,33.9186074 89.1064454,36.3925781 Z M75.5322266,21.109375 C76.5738985,21.0768228 77.4365201,21.0605469 78.1201173,21.0605469 C78.8037144,21.0605469 79.3896461,21.0768228 79.8779298,21.109375 L79.7314454,20.3769531 C79.5361319,19.17252 79.3326834,17.8867256 79.1210938,16.5195312 C78.9095042,15.1523369 78.6979178,13.801439 78.4863282,12.4667969 C78.2747386,11.1321548 78.0712901,9.86263623 77.8759766,8.65820312 C77.6806631,7.45377002 77.5179044,6.39583789 77.3876954,5.484375 C77.0621729,6.3307334 76.6878277,7.34797583 76.2646485,8.53613281 C75.8414693,9.72428979 75.3857447,11.0182222 74.897461,12.4179688 C74.4091773,13.8177153 73.912763,15.2825444 73.4082032,16.8125 C72.9036434,18.3424556 72.4072291,19.8561123 71.9189454,21.3535156 C72.5048858,21.2884111 73.0908174,21.2395835 73.6767579,21.2070312 C74.2626983,21.174479 74.8811817,21.1419272 75.5322266,21.109375 Z M97.2607423,2.359375 C97.1956378,3.53125586 97.0817066,4.88215381 96.9189454,6.41210938 C96.7561841,7.94206494 96.5852874,9.58592871 96.4062501,11.34375 C96.2272127,13.1015713 96.048178,14.9407456 95.8691407,16.8613281 C95.6901033,18.7819106 95.5354825,20.7187402 95.4052735,22.671875 C95.2750645,24.6250098 95.2180989,26.211908 95.2343751,27.4326172 C95.2506512,28.6533264 95.3238926,29.654293 95.4541016,30.4355469 C95.5843106,31.2168008 95.7633453,31.8352842 95.991211,32.2910156 C96.2190767,32.7467471 96.5120425,33.1861958 96.8701173,33.609375 C96.4469381,33.869793 96.056317,34.0651035 95.6982423,34.1953125 C95.3401675,34.3255215 95.0309258,34.4231768 94.7705079,34.4882812 C94.4449854,34.585938 94.1520196,34.6347656 93.8916016,34.6347656 C93.4033179,34.6347656 92.9801451,34.3987654 92.6220704,33.9267578 C92.2639957,33.4547502 91.9791678,32.8444048 91.7675782,32.0957031 C91.5559886,31.3470015 91.3932298,30.5087937 91.2792969,29.5810547 C91.1653641,28.6533157 91.1083985,27.7337285 91.1083985,26.8222656 C91.1083985,25.8456982 91.1409503,24.7145247 91.2060548,23.4287109 C91.2711592,22.1428972 91.3444007,20.7757234 91.4257813,19.3271484 C91.5071619,17.8785735 91.5966793,16.3649167 91.694336,14.7861328 C91.7919927,13.2073489 91.8733721,11.6367266 91.9384766,10.0742188 C92.0035811,8.86978564 92.0686846,7.77930176 92.1337891,6.80273438 C92.1988936,5.95637598 92.2477213,5.18327173 92.2802735,4.48339844 C92.3128257,3.78352515 92.2965499,3.36849023 92.2314454,3.23828125 C92.4267589,2.97786328 92.670897,2.78255273 92.9638673,2.65234375 C93.2568375,2.52213477 93.5335274,2.40820361 93.7939454,2.31054688 C94.1194678,2.21289014 94.4449854,2.13151074 94.7705079,2.06640625 L95.6982423,2.06640625 C95.9586602,2.06640625 96.2353502,2.09082007 96.5283204,2.13964844 C96.8212906,2.18847681 97.0654288,2.26171826 97.2607423,2.359375 Z M108.78418,2.26171875 C109.728195,2.32682324 110.574541,2.55468555 111.323242,2.9453125 C111.974287,3.30338721 112.560219,3.86490503 113.081055,4.62988281 C113.601891,5.3948606 113.878581,6.47720654 113.911133,7.87695312 C113.422849,8.23502783 112.934573,8.49544189 112.446289,8.65820312 C111.958005,8.82096436 111.518557,8.93489551 111.12793,9 C110.672198,9.06510449 110.23275,9.06510449 109.80957,9 C109.939779,8.08853711 109.947917,7.38867432 109.833984,6.90039062 C109.720052,6.41210693 109.565431,6.0540376 109.370117,5.82617188 C109.142252,5.56575391 108.849286,5.419271 108.491211,5.38671875 C107.416987,5.38671875 106.627607,6.19237476 106.123047,7.80371094 C105.618487,9.41504712 105.317383,11.6204287 105.219727,14.4199219 C105.675458,14.3548174 106.082355,14.273438 106.44043,14.1757812 C106.798504,14.0781245 107.205401,14.013021 107.661133,13.9804688 C108.084312,13.9479165 108.491209,13.9316406 108.881836,13.9316406 C109.239911,13.9316406 109.606118,13.9641924 109.980469,14.0292969 C110.35482,14.0944014 110.704751,14.2083325 111.030274,14.3710938 C111.095378,14.9244819 111.095378,15.4290342 111.030274,15.8847656 C110.965169,16.3404971 110.867514,16.747394 110.737305,17.1054688 C110.607096,17.4960957 110.428061,17.8704409 110.200195,18.2285156 C109.809568,18.0332021 109.32943,17.9029951 108.759766,17.8378906 C108.190101,17.7727861 107.644859,17.7402344 107.124024,17.7402344 C106.505531,17.7402344 105.870772,17.7727861 105.219727,17.8378906 C105.252279,19.3352939 105.284831,20.7431575 105.317383,22.0615234 C105.349935,23.3798894 105.390625,24.6656838 105.439453,25.9189453 C105.488282,27.1722068 105.545247,28.4254495 105.610352,29.6787109 C105.675456,30.9319724 105.74056,32.2096289 105.805664,33.5117188 C105.447589,33.9674502 105.065106,34.2522781 104.658203,34.3662109 C104.2513,34.4801438 103.868817,34.5208335 103.510742,34.4882812 C103.087563,34.455729 102.66439,34.3417979 102.241211,34.1464844 C101.980793,31.9980361 101.777345,29.9716892 101.630859,28.0673828 C101.484374,26.1630764 101.362305,24.4947988 101.264649,23.0625 C101.13444,21.4023354 101.036784,19.8724028 100.97168,18.4726562 C100.418292,18.5377607 99.954429,18.5784504 99.5800782,18.5947266 C99.2057274,18.6110027 98.9208995,18.6028647 98.725586,18.5703125 C98.595377,18.5703125 98.5302735,18.4726572 98.5302735,18.2773438 L98.4814454,15.9824219 C98.4814454,15.8522129 98.5465489,15.7871094 98.6767579,15.7871094 C98.9046236,15.7220049 99.2057274,15.6487634 99.5800782,15.5673828 C99.954429,15.4860022 100.402016,15.380209 100.922852,15.25 C101.053061,11.1158647 101.752923,7.91765454 103.022461,5.65527344 C104.291999,3.39289233 106.212552,2.26171875 108.78418,2.26171875 Z M125.19043,19.0097656 C125.19043,19.4654971 125.068361,19.9293596 124.824219,20.4013672 C124.580077,20.8733748 124.278973,21.3209614 123.920899,21.7441406 C123.562824,22.1673198 123.164065,22.5335271 122.724609,22.8427734 C122.285154,23.1520198 121.870119,23.3391924 121.479492,23.4042969 C121.73991,22.3951772 121.82129,21.6139351 121.723633,21.0605469 C121.625976,20.5071587 121.463217,20.1002617 121.235352,19.8398438 C120.974934,19.5468735 120.649416,19.3841147 120.258789,19.3515625 C119.672849,19.3515625 119.111331,19.685218 118.574219,20.3525391 C118.037107,21.0198601 117.573244,21.8336541 117.182617,22.7939453 C116.79199,23.7542366 116.482749,24.7796169 116.254883,25.8701172 C116.027017,26.9606174 115.913086,27.9453081 115.913086,28.8242188 C115.880534,29.4427114 115.89681,30.0449189 115.961914,30.6308594 C115.994466,31.1191431 116.051432,31.6236953 116.132813,32.1445312 C116.214193,32.6653672 116.336262,33.0722642 116.499024,33.3652344 C116.30371,33.5279956 115.98633,33.7233062 115.546875,33.9511719 C115.10742,34.1790376 114.651695,34.3255205 114.179688,34.390625 C113.70768,34.4557295 113.284507,34.3743501 112.910156,34.1464844 C112.535805,33.9186187 112.332357,33.4303423 112.299805,32.6816406 C112.2347,31.9654912 112.194011,31.1598352 112.177734,30.2646484 C112.161458,29.3694617 112.161458,28.4742883 112.177734,27.5791016 C112.194011,26.6839148 112.218424,25.7968794 112.250977,24.9179688 C112.283529,24.0390581 112.332357,23.2252642 112.397461,22.4765625 C112.462565,21.0442637 112.495117,19.9375039 112.495117,19.15625 C112.495117,18.3749961 112.478841,17.6263057 112.446289,16.9101562 C112.446289,16.7799473 112.666013,16.5927747 113.105469,16.3486328 C113.544924,16.104491 114.033201,15.8847666 114.570313,15.6894531 C115.107425,15.4941396 115.603839,15.3802085 116.05957,15.3476562 C116.515302,15.315104 116.743164,15.4127593 116.743164,15.640625 C116.743164,15.9986997 116.702474,16.7067004 116.621094,17.7646484 C116.539713,18.8225964 116.43392,19.9212183 116.303711,21.0605469 C116.531577,20.4420542 116.83268,19.7747432 117.207031,19.0585938 C117.581382,18.3424443 118.012693,17.6751333 118.500977,17.0566406 C118.98926,16.4381479 119.54264,15.9254578 120.161133,15.5185547 C120.779626,15.1116516 121.463212,14.9082031 122.211914,14.9082031 C122.797855,14.9082031 123.277993,15.0872378 123.652344,15.4453125 C124.026695,15.8033872 124.327798,16.2102842 124.555664,16.6660156 C124.78353,17.1217471 124.946289,17.5774717 125.043945,18.0332031 C125.141602,18.4889346 125.19043,18.8144521 125.19043,19.0097656 Z M133.295899,34.5371094 C131.017241,34.5371094 129.259446,33.7721431 128.022461,32.2421875 C126.785476,30.7122319 126.166992,28.7102988 126.166992,26.2363281 C126.166992,24.5110591 126.419268,22.8916091 126.923828,21.3779297 C127.428388,19.8642502 128.103837,18.554042 128.950195,17.4472656 C129.796554,16.3404893 130.781244,15.4697297 131.904297,14.8349609 C133.027349,14.2001921 134.207351,13.8828125 135.444336,13.8828125 C136.648769,13.8828125 137.674149,14.3141233 138.520508,15.1767578 C139.366866,16.0393923 139.790039,17.2682212 139.790039,18.8632812 C139.790039,19.9049531 139.562177,20.9384714 139.106445,21.9638672 C138.650714,22.9892629 138.056644,23.9007122 137.324219,24.6982422 C136.591793,25.4957722 135.786137,26.1386694 134.907227,26.6269531 C134.028316,27.1152368 133.18197,27.359375 132.368164,27.359375 C131.847328,27.359375 131.407879,27.2942715 131.049805,27.1640625 C130.69173,27.0338535 130.366212,26.838543 130.073242,26.578125 C130.170899,28.433603 130.577796,29.7275354 131.293945,30.4599609 C132.010095,31.1923865 132.93782,31.5585938 134.077149,31.5585938 C134.858402,31.5585938 135.550127,31.395835 136.152344,31.0703125 C136.75456,30.74479 137.267251,30.3704448 137.69043,29.9472656 C138.113609,29.5240864 138.455402,29.0927756 138.71582,28.6533203 C138.976238,28.213865 139.155273,27.8802095 139.25293,27.6523438 C139.350586,27.4570303 139.521483,27.359375 139.765625,27.359375 C140.009767,27.359375 140.131836,27.5546855 140.131836,27.9453125 C140.131836,28.3033872 140.009767,28.8486292 139.765625,29.5810547 C139.521483,30.3134802 139.122724,31.0458948 138.569336,31.7783203 C138.015948,32.5107458 137.307947,33.1536431 136.445313,33.7070312 C135.582678,34.2604194 134.532884,34.5371094 133.295899,34.5371094 Z M135.541992,15.9824219 C135.346679,15.9824219 134.980471,16.1858704 134.443359,16.5927734 C133.906247,16.9996765 133.336592,17.5937461 132.734375,18.375 C132.132159,19.1562539 131.578779,20.0921169 131.074219,21.1826172 C130.569659,22.2731174 130.252279,23.5019463 130.12207,24.8691406 C132.075205,24.4134092 133.621414,23.6972705 134.760742,22.7207031 C135.900071,21.7441357 136.469727,20.3118584 136.469727,18.4238281 C136.469727,17.479813 136.355795,16.8369158 136.12793,16.4951172 C135.900064,16.1533186 135.704753,15.9824219 135.541992,15.9824219 Z M158.833008,2.99414062 C158.833008,3.35221533 158.800456,4.05207813 158.735352,5.09375 C158.670247,6.13542187 158.588868,7.38866455 158.491211,8.85351562 C158.393554,10.3183667 158.295899,11.9296787 158.198242,13.6875 C158.100586,15.4453213 158.019206,17.235668 157.954102,19.0585938 C157.888997,20.8815195 157.832032,22.5823489 157.783203,24.1611328 C157.734375,25.7399167 157.718099,27.1477803 157.734375,28.3847656 C157.750651,29.621751 157.807617,30.6552693 157.905274,31.4853516 C158.00293,32.3154338 158.149413,32.8769517 158.344727,33.1699219 L156.147461,34 C155.9847,34.0651045 155.789389,34.0976562 155.561524,34.0976562 C155.333658,34.0976562 155.097658,34.0325527 154.853516,33.9023438 C154.609374,33.7721348 154.405925,33.5442725 154.243164,33.21875 C154.080403,32.8932275 153.999024,32.4375029 153.999024,31.8515625 C153.999024,31.6236968 154.007161,31.3388689 154.023438,30.9970703 C154.039714,30.6552717 154.047852,30.2565127 154.047852,29.8007812 C153.657225,30.4518262 153.234052,31.0865854 152.77832,31.7050781 C152.322589,32.3235708 151.826175,32.8606748 151.289063,33.3164062 C150.751951,33.7721377 150.174157,34.138345 149.555664,34.4150391 C148.937171,34.6917332 148.286136,34.8300781 147.602539,34.8300781 C146.951494,34.8300781 146.316735,34.6917332 145.698242,34.4150391 C145.07975,34.138345 144.52637,33.7233101 144.038086,33.1699219 C143.549802,32.6165337 143.151043,31.900395 142.841797,31.0214844 C142.532551,30.1425737 142.37793,29.0846416 142.37793,27.8476562 C142.37793,25.6015513 142.638344,23.6403079 143.15918,21.9638672 C143.680016,20.2874265 144.339189,18.8877009 145.136719,17.7646484 C145.934249,16.6415959 146.79687,15.7952502 147.724609,15.2255859 C148.652348,14.6559216 149.506832,14.3710938 150.288086,14.3710938 C151.492519,14.3710938 152.420244,14.6884734 153.071289,15.3232422 C153.722334,15.958011 154.194335,16.6171841 154.487305,17.3007812 C154.519857,16.3567661 154.544271,15.4697307 154.560547,14.6396484 C154.576823,13.8095662 154.584961,13.1015654 154.584961,12.515625 C154.584961,10.1067588 154.536133,7.95834277 154.438477,6.0703125 C154.34082,4.18228223 154.096682,2.75000488 153.706055,1.7734375 C154.161786,1.51301953 154.576821,1.31770898 154.951172,1.1875 C155.325523,1.05729102 155.659178,0.959635742 155.952149,0.89453125 C156.310223,0.796874512 156.619465,0.748046875 156.879883,0.748046875 C157.596032,0.748046875 158.100585,0.951495361 158.393555,1.35839844 C158.686525,1.76530151 158.833008,2.31054346 158.833008,2.99414062 Z M154.194336,25.6503906 C154.25944,24.8040322 154.30013,23.9169968 154.316406,22.9892578 C154.332682,22.0615188 154.357096,21.1256558 154.389649,20.1816406 C154.161783,20.5397153 153.893231,20.848957 153.583984,21.109375 C153.274738,21.369793 152.941083,21.4348965 152.583008,21.3046875 C152.713217,20.3281201 152.705079,19.5794297 152.558594,19.0585938 C152.412109,18.5377578 152.20866,18.1471367 151.948242,17.8867188 C151.655272,17.5937485 151.313479,17.4309897 150.922852,17.3984375 C150.336911,17.3984375 149.759117,17.7239551 149.189453,18.375 C148.619789,19.0260449 148.115237,19.8317009 147.675781,20.7919922 C147.236326,21.7522834 146.886395,22.7776638 146.625977,23.8681641 C146.365559,24.9586643 146.235352,25.9596309 146.235352,26.8710938 C146.235352,28.6940195 146.487628,29.9635381 146.992188,30.6796875 C147.496747,31.3958369 148.041989,31.7539062 148.62793,31.7539062 C149.116213,31.7539062 149.628904,31.5585957 150.166016,31.1679688 C150.703128,30.7773418 151.223956,30.2727896 151.728516,29.6542969 C152.233076,29.0358042 152.705076,28.3766311 153.144531,27.6767578 C153.583987,26.9768845 153.933918,26.3014355 154.194336,25.6503906 Z" id="path-1"></path>
    </defs>
    <g id="Page-1" stroke="none" stroke-width="1" fill="none" fill-rule="evenodd">
        <g id="ask-alfred">
            <g id="AskAlfred">
                <use fill="#000000" xlink:href="#path-1"></use>
                <use fill="#FFFFFF" xlink:href="#path-1"></use>
            </g>
        </g>
    </g>
</svg>
