
<svg width="31px" height="31px" viewBox="0 0 31 31" version="1.1" xmlns="http://www.w3.org/2000/svg" xmlns:xlink="http://www.w3.org/1999/xlink">
    <g id="Page-1" stroke="none" stroke-width="1" fill="none" fill-rule="evenodd">
        <g id="request_action-(2)" transform="translate(-360.000000, -1021.000000)" fill="#5F8AE4" fill-rule="nonzero">
            <g id="Group" transform="translate(360.000000, 1021.000000)">
                <g id="plus">
                    <path d="M15.5,0 C6.95353846,0 0,6.95294231 0,15.5 C0,24.0470577 6.95353846,31 15.5,31 C24.0464615,31 31,24.0470577 31,15.5 C31,6.95294231 24.0464615,0 15.5,0 Z M15.5,29.8076923 C7.61109615,29.8076923 1.19230769,23.3889038 1.19230769,15.5 C1.19230769,7.61109615 7.61109615,1.19230769 15.5,1.19230769 C23.3889038,1.19230769 29.8076923,7.61109615 29.8076923,15.5 C29.8076923,23.3889038 23.3889038,29.8076923 15.5,29.8076923 Z" id="Shape"></path>
                </g>
                <path d="M16.0113191,8.21142468 C15.9448765,8.14425988 15.8647121,8.09153912 15.7758812,8.05470681 C15.5996639,7.9817644 15.4003361,7.9817644 15.2241188,8.05470681 C15.1352879,8.09153912 15.0558457,8.14425988 14.9886809,8.21142468 L9.21178578,13.9883198 C8.92940474,14.2707008 8.92940474,14.7271326 9.21178578,15.0095136 C9.35261521,15.150343 9.53749896,15.2211189 9.72238271,15.2211189 C9.90726646,15.2211189 10.0921502,15.150343 10.2329796,15.0095136 L14.7777978,10.4646954 L14.7777978,25.3319491 C14.7777978,25.7313269 15.1013444,26.0541513 15.5,26.0541513 C15.8986556,26.0541513 16.2222022,25.7313269 16.2222022,25.3319491 L16.2222022,10.4646954 L20.7670204,15.0095136 C20.9078498,15.150343 21.0927335,15.2211189 21.2776173,15.2211189 C21.462501,15.2211189 21.6473848,15.150343 21.7882142,15.0095136 C22.0705953,14.7271326 22.0705953,14.2707008 21.7882142,13.9883198 L16.0113191,8.21142468 Z" id="Path"></path>
            </g>
        </g>
    </g>
</svg>