
<svg width="31px" height="30px" viewBox="0 0 31 30" version="1.1" xmlns="http://www.w3.org/2000/svg" xmlns:xlink="http://www.w3.org/1999/xlink">
    <g id="Page-1" stroke="none" stroke-width="1" fill="none" fill-rule="evenodd">
        <g id="request_without_answer" transform="translate(-662.000000, -1251.000000)" fill="#BAC1C4">
            <g id="write-a-reply" transform="translate(25.000000, 1225.000000)">
                <g id="Input-Field">
                    <g id="ic_paper" transform="translate(652.500000, 41.000000) scale(-1, 1) rotate(-270.000000) translate(-652.500000, -41.000000) translate(637.500000, 25.500000)">
                        <path d="M27.4554709,13.269319 L14.0518236,26.0502357 C11.4511159,28.522693 7.22063146,28.522693 4.62125749,26.0502357 C2.02188351,23.5777785 2.02054981,19.5525826 4.62125749,17.0788568 L18.7957812,3.65096559 C20.3562058,2.1667301 22.8942297,2.1667301 24.4546543,3.65096559 C26.0137452,5.13520108 26.0150789,7.54803518 24.4546543,9.03227067 L13.1089004,19.7695093 C12.5887588,20.2642545 11.7431954,20.2642545 11.2230539,19.7695093 C10.7029124,19.2747641 10.7029124,18.4704861 11.2230539,17.9757409 L20.6829614,9.03227067 L18.7957812,7.23850231 L9.33587371,16.180704 C7.77278171,17.6674766 7.77411541,20.0790422 9.33587371,21.5645462 C10.897632,23.0500503 13.4316549,23.0500503 14.9934132,21.5645462 L26.3391671,10.8273076 C27.6421884,9.58790755 28.2916984,7.96539713 28.2916984,6.34161813 C28.2916984,2.82892747 25.2962167,-1.14315964e-13 21.6232172,-1.14315964e-13 C19.916086,-1.14315964e-13 18.2102885,0.619065743 16.9072673,1.85846581 L2.7340773,15.2838198 C0.912248231,17.0192336 -6.66133815e-16,19.2912556 -6.66133815e-16,21.5645462 C-6.66133815e-16,26.4650605 4.17446924,30.4445876 9.33587371,30.4445876 C11.7258574,30.4445876 14.1145073,29.5768807 15.9376701,27.8440041 L29.3413174,15.0630874 L27.4554709,13.269319 L27.4554709,13.269319 Z" id="Shape"></path>
                    </g>
                </g>
            </g>
        </g>
    </g>
</svg>