
<svg width="100px" height="121px" viewBox="0 0 100 121" version="1.1" xmlns="http://www.w3.org/2000/svg" xmlns:xlink="http://www.w3.org/1999/xlink">
    <g id="Page-1" stroke="none" stroke-width="1" fill="none" fill-rule="evenodd">
        <g id="email_blue" transform="translate(-455.000000, -764.000000)">
            <g id="Group-3" transform="translate(455.000000, 764.000000)">
                <g id="Group-2" transform="translate(0.000000, 20.400000)">
                    <g id="pot-(1)">
                        <path d="M50,0 C22.3859375,0 0,22.3859375 0,50 C0,77.6140625 22.3859375,100 50,100 C77.6140625,100 100,77.6140625 100,50 C100,22.3859375 77.6140625,0 50,0 Z" id="Path" fill="#F7F8FB"></path>
                        <path d="M15.4919922,40.5119141 L15.3199219,40.5119141 C17.6708984,40.5648438 19.0089844,41.7330078 19.6419922,43.6269531 L19.6470703,43.6269531 C19.0310547,41.7759766 17.7419922,40.6150391 15.4919922,40.5119141 Z M82.0490234,40.5119141 L81.8740234,40.5119141 C79.5099609,40.6080078 78.2400391,41.6298828 77.6759766,43.6269531 L77.6789062,43.6269531 C78.2570312,41.5849609 79.5779297,40.5660156 82.0490234,40.5119141 Z" id="Shape" fill="#466575" fill-rule="nonzero"></path>
                    </g>
                </g>
                <g id="idea" transform="translate(6.000000, 0.000000)">
                    <path d="M87.8839585,43.8600207 C87.8839585,17.8945492 65.4918342,-2.59189637 39.049886,0.266735751 C18.3252021,2.64889119 1.65011399,19.800456 0.220911917,40.7633782 C-0.970279793,56.7237513 6.65266321,71.2549223 18.5634404,79.8305907 C21.1838342,81.7362694 22.8512746,84.5949016 22.8512746,87.9300104 L22.8512746,88.406487 L65.0153575,88.406487 L65.0153575,87.9300104 C65.0153575,84.5949016 66.6827979,81.7364974 69.3031917,79.8305907 C80.7374922,71.731399 87.8839585,58.6294301 87.8839585,43.8600207 Z" id="Path" fill="#FFD15C"></path>
                    <path d="M65.0153575,88.4062591 L23.089513,88.4062591 C20.4691192,88.4062591 18.3252021,90.5501762 18.3252021,93.1705699 L18.3252021,101.746238 C18.3252021,104.366632 20.4691192,106.510549 23.089513,106.510549 L64.7771192,106.510549 C67.397513,106.510549 69.5414301,104.366632 69.5414301,101.746238 L69.5414301,93.1705699 C69.7796684,90.5501762 67.6357513,88.4062591 65.0153575,88.4062591 Z" id="Path" fill="#FF7058"></path>
                    <path d="M61.4422383,106.510777 L61.4422383,109.607648 C61.4422383,112.228041 59.2983212,114.371959 56.6779275,114.371959 L31.426943,114.371959 C28.8065492,114.371959 26.6626321,112.228041 26.6626321,109.607648 L26.6626321,106.510777 L61.4422383,106.510777 Z" id="Path" fill="#40596B"></path>
                    <rect id="Rectangle" fill="#334A5E" x="26.6626321" y="106.510777" width="35.0176166" height="3.57311917"></rect>
                    <path d="M41.6702798,60.7733472 L41.6702798,88.4062591 L46.4345907,88.4062591 L46.4345907,60.7733472 L56.4396891,50.7682487 C57.3926425,49.8152953 57.3926425,48.3860933 56.4396891,47.4331399 C55.4867358,46.4801865 54.0575337,46.4801865 53.1045803,47.4331399 L44.0524352,56.485285 L35.0002902,47.4331399 C34.0473368,46.4801865 32.6181347,46.4801865 31.6651813,47.4331399 C30.712228,48.3860933 30.712228,49.8152953 31.6651813,50.7682487 L41.6702798,60.7733472 Z" id="Path" fill="#FFFFFF"></path>
                    <path d="M0.220911917,45.5276891 C1.65011399,24.5647668 18.3252021,7.41320207 39.049886,5.03104663 C64.7771192,2.17241451 86.4547565,21.4678964 87.8839585,46.2421762 C87.8839585,45.5274611 87.8839585,44.8129741 87.8839585,43.8600207 C87.8839585,17.8945492 65.4918342,-2.59189637 39.049886,0.266735751 C18.3252021,2.64889119 1.65011399,19.800456 0.220911917,40.7633782 C-0.0173264249,42.669057 -0.0173264249,44.5747358 0.220911917,46.4806425 C0.220911917,46.2421762 0.220911917,45.7659275 0.220911917,45.5276891 Z" id="Path" fill="#F9BC64"></path>
                </g>
            </g>
        </g>
    </g>
</svg>