
<svg width="65px" height="44px" viewBox="0 0 65 44" version="1.1" xmlns="http://www.w3.org/2000/svg" xmlns:xlink="http://www.w3.org/1999/xlink">
    <g id="Page-1" stroke="none" stroke-width="1" fill="none" fill-rule="evenodd">
        <g id="payment_add_card" transform="translate(-534.000000, -673.000000)">
            <g id="credit-card" transform="translate(534.000000, 673.000000)">
                <path d="M61.3947414,43.4482759 L3.60525862,43.4482759 C1.6137931,43.4482759 0,41.9586207 0,40.1203448 L0,3.32793103 C0,1.48965517 1.6137931,-6.39488462e-14 3.60525862,-6.39488462e-14 L61.3947414,-6.39488462e-14 C63.3862069,-6.39488462e-14 65,1.48965517 65,3.32793103 L65,40.1203448 C65,41.9586207 63.3862069,43.4482759 61.3947414,43.4482759" id="XMLID_118_" fill="#EAEAEA"></path>
                <path d="M51.5862069,12.4137931 C51.5862069,15.842069 48.8075862,18.6206897 45.3793103,18.6206897 C41.95,18.6206897 39.1724138,15.842069 39.1724138,12.4137931 C39.1724138,8.98551724 41.95,6.20689655 45.3793103,6.20689655 C48.8075862,6.20689655 51.5862069,8.98551724 51.5862069,12.4137931" id="XMLID_117_" fill="#E74C3D"></path>
                <path d="M58.8275862,12.4137931 C58.8275862,15.842069 56.0489655,18.6206897 52.6206897,18.6206897 C49.1924138,18.6206897 46.4137931,15.842069 46.4137931,12.4137931 C46.4137931,8.98551724 49.1924138,6.20689655 52.6206897,6.20689655 C56.0489655,6.20689655 58.8275862,8.98551724 58.8275862,12.4137931" id="XMLID_116_" fill="#F0C41B"></path>
                <path d="M14.4827586,7.24137931 L5.17241379,7.24137931 C4.60034483,7.24137931 4.13793103,7.70482759 4.13793103,8.27586207 C4.13793103,8.84689655 4.60034483,9.31034483 5.17241379,9.31034483 L14.4827586,9.31034483 C15.0548276,9.31034483 15.5172414,8.84689655 15.5172414,8.27586207 C15.5172414,7.70482759 15.0548276,7.24137931 14.4827586,7.24137931" id="XMLID_115_" fill="#929090"></path>
                <path d="M28.9655172,8.27586207 C28.9655172,7.70482759 28.5031034,7.24137931 27.9310345,7.24137931 L18.6206897,7.24137931 C18.0486207,7.24137931 17.5862069,7.70482759 17.5862069,8.27586207 C17.5862069,8.84689655 18.0486207,9.31034483 18.6206897,9.31034483 L27.9310345,9.31034483 C28.5031034,9.31034483 28.9655172,8.84689655 28.9655172,8.27586207" id="XMLID_114_" fill="#929090"></path>
                <path d="M6.20689655,12.4137931 L5.17241379,12.4137931 C4.60034483,12.4137931 4.13793103,12.8772414 4.13793103,13.4482759 C4.13793103,14.0193103 4.60034483,14.4827586 5.17241379,14.4827586 L6.20689655,14.4827586 C6.77896552,14.4827586 7.24137931,14.0193103 7.24137931,13.4482759 C7.24137931,12.8772414 6.77896552,12.4137931 6.20689655,12.4137931" id="XMLID_113_" fill="#929090"></path>
                <path d="M12.4137931,12.4137931 L10.3448276,12.4137931 C9.77275862,12.4137931 9.31034483,12.8772414 9.31034483,13.4482759 C9.31034483,14.0193103 9.77275862,14.4827586 10.3448276,14.4827586 L12.4137931,14.4827586 C12.9858621,14.4827586 13.4482759,14.0193103 13.4482759,13.4482759 C13.4482759,12.8772414 12.9858621,12.4137931 12.4137931,12.4137931" id="XMLID_112_" fill="#929090"></path>
                <path d="M17.5862069,12.4137931 L16.5517241,12.4137931 C15.9796552,12.4137931 15.5172414,12.8772414 15.5172414,13.4482759 C15.5172414,14.0193103 15.9796552,14.4827586 16.5517241,14.4827586 L17.5862069,14.4827586 C18.1582759,14.4827586 18.6206897,14.0193103 18.6206897,13.4482759 C18.6206897,12.8772414 18.1582759,12.4137931 17.5862069,12.4137931" id="XMLID_111_" fill="#929090"></path>
                <path d="M23.7931034,12.4137931 L21.7241379,12.4137931 C21.152069,12.4137931 20.6896552,12.8772414 20.6896552,13.4482759 C20.6896552,14.0193103 21.152069,14.4827586 21.7241379,14.4827586 L23.7931034,14.4827586 C24.3651724,14.4827586 24.8275862,14.0193103 24.8275862,13.4482759 C24.8275862,12.8772414 24.3651724,12.4137931 23.7931034,12.4137931" id="XMLID_110_" fill="#929090"></path>
                <path d="M27.2068966,12.7137931 C27.0093103,12.9103448 26.8965517,13.1689655 26.8965517,13.4482759 C26.8965517,13.7275862 27.0093103,13.9862069 27.1965517,14.1827586 C27.392069,14.3689655 27.662069,14.4827586 27.9310345,14.4827586 C28.2,14.4827586 28.467931,14.3689655 28.6655172,14.1827586 C28.8517241,13.9862069 28.9655172,13.7172414 28.9655172,13.4482759 C28.9655172,13.1793103 28.8517241,12.9103448 28.6655172,12.7241379 C28.2827586,12.3310345 27.5793103,12.3310345 27.2068966,12.7137931" id="XMLID_109_" fill="#929090"></path>
                <rect id="XMLID_108_" fill="#929090" x="8.17241379" y="30" width="9.31034483" height="6.20689655"></rect>
                <rect id="XMLID_107_" fill="#929090" x="21.6206897" y="30" width="9.31034483" height="6.20689655"></rect>
                <rect id="XMLID_106_" fill="#929090" x="35.0689655" y="30" width="9.31034483" height="6.20689655"></rect>
                <rect id="XMLID_105_" fill="#929090" x="48.5172414" y="30" width="9.31034483" height="6.20689655"></rect>
            </g>
        </g>
    </g>
</svg>