
<svg width="250px" height="311px" viewBox="0 0 250 311" version="1.1" xmlns="http://www.w3.org/2000/svg" xmlns:xlink="http://www.w3.org/1999/xlink">
    <g id="Page-1" stroke="none" stroke-width="1" fill="none" fill-rule="evenodd">
        <g id="i_am_alfred-(1)" transform="translate(-250.000000, -785.000000)">
            <g id="Group" transform="translate(250.000000, 785.000000)">
                <g id="Group-2" transform="translate(0.000000, 61.000000)">
                    <g id="pot-(1)">
                        <path d="M125,0 C55.9648438,0 0,55.9648438 0,125 C0,194.035156 55.9648438,250 125,250 C194.035156,250 250,194.035156 250,125 C250,55.9648437 194.035156,0 125,0 Z" id="Path" fill="#5F8AE4"></path>
                        <path d="M38.7299805,101.279785 L38.2998047,101.279785 C44.1772461,101.412109 47.5224609,104.33252 49.1049805,109.067383 L49.1176758,109.067383 C47.5776367,104.439941 44.3549805,101.537598 38.7299805,101.279785 Z M205.122559,101.279785 L204.685059,101.279785 C198.774902,101.52002 195.600098,104.074707 194.189941,109.067383 L194.197266,109.067383 C195.642578,103.962402 198.944824,101.415039 205.122559,101.279785 Z" id="Shape" fill="#466575" fill-rule="nonzero"></path>
                    </g>
                </g>
                <g id="idea" transform="translate(15.000000, 0.000000)">
                    <path d="M219.709896,109.650052 C219.709896,44.7363731 163.729585,-6.47974093 97.624715,0.666839378 C45.8130052,6.62222798 4.12528497,49.5011399 0.552279793,101.908446 C-2.42569948,141.809378 16.631658,178.137306 46.408601,199.576477 C52.9595855,204.340674 57.1281865,211.487254 57.1281865,219.825026 L57.1281865,221.016218 L162.538394,221.016218 L162.538394,219.825026 C162.538394,211.487254 166.706995,204.341244 173.257979,199.576477 C201.843731,179.328497 219.709896,146.573575 219.709896,109.650052 Z" id="Path" fill="#FFD15C"></path>
                    <path d="M162.538394,221.015648 L57.7237824,221.015648 C51.1727979,221.015648 45.8130052,226.37544 45.8130052,232.926425 L45.8130052,254.365596 C45.8130052,260.91658 51.1727979,266.276373 57.7237824,266.276373 L161.942798,266.276373 C168.493782,266.276373 173.853575,260.91658 173.853575,254.365596 L173.853575,232.926425 C174.449171,226.37544 169.089378,221.015648 162.538394,221.015648 Z" id="Path" fill="#FF7058"></path>
                    <path d="M153.605596,266.276943 L153.605596,274.019119 C153.605596,280.570104 148.245803,285.929896 141.694819,285.929896 L78.5673575,285.929896 C72.0163731,285.929896 66.6565803,280.570104 66.6565803,274.019119 L66.6565803,266.276943 L153.605596,266.276943 Z" id="Path" fill="#40596B"></path>
                    <rect id="Rectangle" fill="#334A5E" x="66.6565803" y="266.276943" width="87.5440415" height="8.93279793"></rect>
                    <path d="M104.175699,151.933368 L104.175699,221.015648 L116.086477,221.015648 L116.086477,151.933368 L141.099223,126.920622 C143.481606,124.538238 143.481606,120.965233 141.099223,118.58285 C138.716839,116.200466 135.143834,116.200466 132.761451,118.58285 L110.131088,141.213212 L87.5007254,118.58285 C85.118342,116.200466 81.5453368,116.200466 79.1629534,118.58285 C76.7805699,120.965233 76.7805699,124.538238 79.1629534,126.920622 L104.175699,151.933368 Z" id="Path" fill="#FFFFFF"></path>
                    <path d="M0.552279793,113.819223 C4.12528497,61.4119171 45.8130052,18.5330052 97.624715,12.5776166 C161.942798,5.43103627 216.136891,53.6697409 219.709896,115.60544 C219.709896,113.818653 219.709896,112.032435 219.709896,109.650052 C219.709896,44.7363731 163.729585,-6.47974093 97.624715,0.666839378 C45.8130052,6.62222798 4.12528497,49.5011399 0.552279793,101.908446 C-0.0433160622,106.672642 -0.0433160622,111.436839 0.552279793,116.201606 C0.552279793,115.60544 0.552279793,114.414819 0.552279793,113.819223 Z" id="Path" fill="#F9BC64"></path>
                </g>
            </g>
        </g>
    </g>
</svg>