
<svg width="270px" height="270px" viewBox="0 0 270 270" version="1.1" xmlns="http://www.w3.org/2000/svg" xmlns:xlink="http://www.w3.org/1999/xlink">
    <g id="Page-1" stroke="none" stroke-width="1" fill="none" fill-rule="evenodd">
        <g id="before-login-not-found" transform="translate(-241.000000, -350.000000)">
            <g id="Group-2" transform="translate(241.000000, 350.000000)">
                <g id="pot-(1)">
                    <path d="M0,135 C0,209.557969 60.4420312,270 135,270 C209.557969,270 270,209.557969 270,135 C270,60.4420312 209.557969,0 135,0 C60.4420312,0 0,60.4420312 0,135 Z" id="Path" fill="#5F8AE4"></path>
                    <path d="M41.8283789,109.382168 L41.3637891,109.382168 C47.7114258,109.525078 51.3242578,112.679121 53.0333789,117.792773 L53.0470898,117.792773 C51.3838477,112.795137 47.9033789,109.660605 41.8283789,109.382168 L41.8283789,109.382168 Z M221.532363,109.382168 L221.059863,109.382168 C214.676895,109.641621 211.248105,112.400684 209.725137,117.792773 L209.733047,117.792773 C211.293984,112.279395 214.86041,109.528242 221.532363,109.382168 L221.532363,109.382168 Z" id="Shape" fill="#466575" fill-rule="nonzero"></path>
                </g>
                <g id="warning-(1)" transform="translate(9.000000, 4.000000)">
                    <path d="M246.860619,192.135509 L145.385509,11.9977876 C136.732854,-3.73451327 113.13385,-3.73451327 104.480642,11.9977876 L3.00608407,192.135509 C-5.6465708,207.86781 5.36615044,227.533739 23.4585177,227.533739 L225.621681,227.533739 C244.500553,226.747235 255.513274,207.86781 246.860619,192.135509 Z" id="Path" fill="#D75A4A"></path>
                    <polygon id="Path" fill="#FFFFFF" points="124.933075 23.7970133 226.408186 203.934735 23.4585177 203.934735"></polygon>
                    <g id="Group" transform="translate(107.853982, 87.389381)" fill="#3F4448">
                        <path d="M0.560287611,19.0038717 L6.8534292,60.6952434 C7.63993363,65.414823 11.5730088,69.3478982 17.079646,69.3478982 L17.079646,69.3478982 C21.7992257,69.3478982 26.5193584,65.414823 27.3058628,60.6952434 L33.5990044,19.0038717 C35.1720133,8.77765487 27.3058628,0.125 17.079646,0.125 L17.079646,0.125 C6.85287611,0.124446903 -0.226769912,8.77765487 0.560287611,19.0038717 Z" id="Path"></path>
                        <circle id="Oval" cx="17.0790929" cy="87.4402655" r="9.43971239"></circle>
                    </g>
                </g>
            </g>
        </g>
    </g>
</svg>