
<svg width="40px" height="28px" viewBox="0 0 40 28" version="1.1" xmlns="http://www.w3.org/2000/svg" xmlns:xlink="http://www.w3.org/1999/xlink">
    <g id="Symbols" stroke="none" stroke-width="1" fill="none" fill-rule="evenodd">
        <g id="sign_in_form" transform="translate(0.000000, -12.000000)" fill="#FFFFFF">
            <path d="M36.7530209,36.3059582 L3.24697915,36.3059582 C2.99557019,36.3059582 2.78312499,36.0944407 2.78312499,35.842104 L2.78312499,16.0652179 L19.2378876,26.8349839 C19.4698147,26.9862003 19.7342116,27.0632001 19.9995361,27.0632001 C20.2694993,27.0632001 20.5385347,26.9852726 20.7723172,26.8294176 L37.216875,15.8555558 L37.216875,35.842104 C37.216875,36.0944407 37.0044298,36.3059582 36.7530209,36.3059582 Z M33.8084746,14.783125 L19.9930422,24.0036181 L5.90671893,14.783125 L33.8084746,14.783125 Z M38.3384744,12.4313844 C37.8671986,12.1651321 37.3319108,12 36.7530209,12 L3.24697915,12 C1.45742978,12 0,13.4565021 0,15.2469791 L0,35.842104 C0,37.6325811 1.45742978,39.0890832 3.24697915,39.0890832 L36.7530209,39.0890832 C38.5425702,39.0890832 40,37.6325811 40,35.842104 L40,15.2469791 C40,14.3201985 39.6038685,13.4880442 38.9785931,12.8952385 C38.8088225,12.6753717 38.5861725,12.5176612 38.3384744,12.4313844 Z" id="1E"></path>
        </g>
    </g>
</svg>