
<svg width="30px" height="41px" viewBox="0 0 30 41" version="1.1" xmlns="http://www.w3.org/2000/svg" xmlns:xlink="http://www.w3.org/1999/xlink">
    <g id="Symbols" stroke="none" stroke-width="1" fill="none" fill-rule="evenodd">
        <g id="sign_in_form" transform="translate(-5.000000, -89.000000)" fill="#FFFFFF">
            <path d="M18.6865544,117.914383 L18.6865544,119.489279 C18.6865544,120.223641 19.2802371,120.816439 20.013714,120.816439 C20.7463061,120.816439 21.3408736,120.223641 21.3408736,119.489279 L21.3408736,117.905536 C22.15398,117.436606 22.7096175,116.569528 22.7096175,115.569735 C22.7096175,114.083316 21.5001327,112.871177 20.013714,112.871177 C18.5264105,112.871177 17.3169257,114.083316 17.3169257,115.569735 C17.3169257,116.551833 17.8477895,117.436606 18.6865544,117.914383 M32.3456808,123.674256 C32.3456808,123.992774 32.2713599,126.832896 29.6931312,126.939069 C25.8452532,127.08948 10.5484118,126.956764 10.3581856,126.947916 C10.1219512,126.947916 8.04981272,126.832896 7.65431917,123.125697 L7.65431917,107.748341 L32.3456808,107.748341 L32.3456808,123.674256 Z M19.9606276,91.6543192 C27.4148406,91.6543192 27.842186,97.8388828 27.8660749,98.5024626 L27.8660749,105.094022 L12.0560651,105.094022 L12.0551803,98.8652196 C12.0631433,98.5643967 12.3197275,91.6543192 19.9606276,91.6543192 Z M33.6728404,105.094022 L30.520394,105.094022 L30.5195092,98.4670717 C30.4363406,95.1934114 28.1217743,89 19.9606276,89 C11.7985962,89 9.48491462,95.4057569 9.40174595,98.8298286 L9.40174595,105.094022 L6.32715958,105.094022 C5.59456749,105.094022 5,105.68682 5,106.421181 L5,123.196479 C5,123.240717 5.00265432,123.284956 5.00707818,123.329195 C5.51936178,128.434335 8.78859822,129.699561 10.3688029,129.602236 C10.7713746,129.611083 16.9417819,129.66417 22.3866753,129.66417 C25.5001917,129.66417 28.3774737,129.646474 29.8010735,129.593388 C33.9126139,129.425281 35,125.6473 35,123.674256 L35,106.421181 C35,105.68682 34.4054325,105.094022 33.6728404,105.094022 Z" id="3F"></path>
        </g>
    </g>
</svg>