
<svg width="31px" height="31px" viewBox="0 0 31 31" version="1.1" xmlns="http://www.w3.org/2000/svg" xmlns:xlink="http://www.w3.org/1999/xlink">
    <g id="Page-1" stroke="none" stroke-width="1" fill="none" fill-rule="evenodd">
        <g id="request_action" transform="translate(-360.000000, -1146.000000)" fill="#5F8AE4">
            <g id="plus" transform="translate(360.000000, 1146.000000)">
                <path d="M15.5,0 C6.95353846,0 0,6.95294231 0,15.5 C0,24.0470577 6.95353846,31 15.5,31 C24.0464615,31 31,24.0470577 31,15.5 C31,6.95294231 24.0464615,0 15.5,0 Z M15.5,29.8076923 C7.61109615,29.8076923 1.19230769,23.3889038 1.19230769,15.5 C1.19230769,7.61109615 7.61109615,1.19230769 15.5,1.19230769 C23.3889038,1.19230769 29.8076923,7.61109615 29.8076923,15.5 C29.8076923,23.3889038 23.3889038,29.8076923 15.5,29.8076923 Z" id="Shape" fill-rule="nonzero"></path>
                <path d="M22.9519231,14.9038462 L16.0961538,14.9038462 L16.0961538,8.34615385 C16.0961538,8.01648077 15.8290769,7.75 15.5,7.75 C15.1709231,7.75 14.9038462,8.01648077 14.9038462,8.34615385 L14.9038462,14.9038462 L8.04807692,14.9038462 C7.719,14.9038462 7.45192308,15.1703269 7.45192308,15.5 C7.45192308,15.8296731 7.719,16.0961538 8.04807692,16.0961538 L14.9038462,16.0961538 L14.9038462,23.25 C14.9038462,23.5796731 15.1709231,23.8461538 15.5,23.8461538 C15.8290769,23.8461538 16.0961538,23.5796731 16.0961538,23.25 L16.0961538,16.0961538 L22.9519231,16.0961538 C23.281,16.0961538 23.5480769,15.8296731 23.5480769,15.5 C23.5480769,15.1703269 23.281,14.9038462 22.9519231,14.9038462 Z" id="Path"></path>
            </g>
        </g>
    </g>
</svg>