
<svg width="30px" height="30px" viewBox="0 0 30 30" version="1.1" xmlns="http://www.w3.org/2000/svg" xmlns:xlink="http://www.w3.org/1999/xlink">
    <g id="Page-1" stroke="none" stroke-width="1" fill="none" fill-rule="evenodd">
        <g id="request_canceled" transform="translate(-360.000000, -1025.000000)" fill="#D0342C" fill-rule="nonzero">
            <g id="noun_Cross_2114068" transform="translate(360.000000, 1025.000000)">
                <path d="M15.0501836,0 C23.3219094,0 30,6.67809058 30,14.9118727 C30,23.1835985 23.3219094,29.8616891 15.0501836,29.8616891 C6.81640147,29.8616891 0.138310894,23.1835985 0.138310894,14.9118727 C0.138310894,6.67809058 6.81640147,0 15.0501836,0 Z M7.84088127,8.30966952 L14.4430845,14.9118727 L7.84088127,21.5140759 L8.44798042,22.121175 L15.0501836,15.5189718 L21.6523868,22.121175 L22.2594859,21.5140759 L15.6572827,14.9118727 L22.2594859,8.30966952 L21.6523868,7.70257038 L15.0501836,14.3047736 L8.44798042,7.70257038 L7.84088127,8.30966952 Z M15.0501836,0.758873929 C7.23378213,0.758873929 0.897184823,7.09547124 0.897184823,14.9118727 C0.897184823,22.7662179 7.23378213,29.1028152 15.0501836,29.1028152 C22.9045288,29.1028152 29.2411261,22.7662179 29.2411261,14.9118727 C29.2411261,7.09547124 22.9045288,0.758873929 15.0501836,0.758873929 Z" id="Shape"></path>
            </g>
        </g>
    </g>
</svg>