
<svg width="30px" height="30px" viewBox="0 0 30 30" version="1.1" xmlns="http://www.w3.org/2000/svg" xmlns:xlink="http://www.w3.org/1999/xlink">
    <g id="Page-1" stroke="none" stroke-width="1" fill="none" fill-rule="evenodd">
        <g id="request_success" transform="translate(-360.000000, -1026.000000)" fill="#8BC658" fill-rule="nonzero">
            <g id="checked" transform="translate(360.000000, 1026.000000)">
                <polygon id="Shape" points="12.0501563 21.5625 23.3001563 10.2440625 22.6373437 9.5465625 11.71875 20.4482813 6.42515625 15.14625 5.76234375 15.8732812 11.3873437 21.5625"></polygon>
                <path d="M14.9995313,30 C14.9995313,30 15,30 15.0004688,30 C19.0073438,30 22.77375,28.4390625 25.606875,25.6064063 C28.44,22.77375 30,19.0064062 29.9995313,14.9995312 C29.9995313,10.9926562 28.4395313,7.22578125 25.6064063,4.393125 C22.77375,1.56046875 19.0073438,0 15.0004688,0 C15,0 15,0 14.9995313,0 C10.9926563,0 7.22625,1.56046875 4.393125,4.39359375 C1.56046875,7.22671875 1.6651177e-15,10.9935938 0.00046875,15.0004687 C0.00046875,19.0073438 1.56046875,22.7742187 4.39359375,25.606875 C7.22625,28.4395312 10.9926563,30 14.9995313,30 Z M5.05640625,5.05640625 C7.711875,2.40046875 11.2434375,0.9375 15.0004687,0.9375 C15.0009375,0.9375 15.0009375,0.9375 15.0014062,0.9375 C18.7570312,0.9375 22.288125,2.40046875 24.9440625,5.0559375 C27.6,7.711875 29.0625,11.2434375 29.0620312,14.9995313 C29.0620312,18.7560938 27.5995312,22.2876563 24.9440625,24.9435938 C22.2885937,27.5995312 18.7570312,29.0625 15.0004687,29.0625 L14.9995312,29.0625 C14.9990625,29.0625 14.9990625,29.0625 14.9985937,29.0625 C11.2429687,29.0625 7.711875,27.5995312 5.0559375,24.9440625 C2.40046875,22.288125 0.9375,18.7570313 0.93796875,15.0004687 C0.9375,11.2439063 2.40046875,7.71234375 5.05640625,5.05640625 Z" id="Shape"></path>
            </g>
        </g>
    </g>
</svg>