
<svg width="30px" height="30px" viewBox="0 0 30 30" version="1.1" xmlns="http://www.w3.org/2000/svg" xmlns:xlink="http://www.w3.org/1999/xlink">
    <g id="Page-1" stroke="none" stroke-width="1" fill="none" fill-rule="evenodd">
        <g id="request_without_answer" transform="translate(-360.000000, -1022.000000)" fill="#5F8AE4">
            <g id="clock-(2)" transform="translate(360.000000, 1022.000000)">
                <path d="M22.0959184,8.13673469 L28.4081633,9.79591837 L30,3.48367347 L28.7877551,3.16530612 L27.7469388,7.13877551 C25.1081633,2.85918367 20.3816327,0.012244898 14.9877551,0.012244898 C6.71020408,0.012244898 0,6.72857143 0,15.0122449 C0,23.2959184 6.71020408,30.0122449 14.9877551,30.0122449 C20.5102041,30.0122449 25.3346939,27.0244898 27.9367347,22.5734694 L26.755102,22.0040816 C24.3673469,26.0142857 19.9959184,28.7020408 14.9938776,28.7020408 C7.43877551,28.7020408 1.31020408,22.5734694 1.31020408,15.0122449 C1.31020408,7.45102041 7.43265306,1.31632653 14.9877551,1.31632653 C20.0204082,1.31632653 24.422449,4.03469388 26.7979592,8.0877551 L22.4142857,6.9244898 L22.0959184,8.13673469 Z" id="Path"></path>
                <polygon id="Path" points="12.9795918 4.81836735 12.9795918 16.1755102 20.3142857 19.744898 20.8836735 18.6 14.2591837 15.4102041 14.2591837 4.81836735"></polygon>
            </g>
        </g>
    </g>
</svg>