
<svg width="74px" height="74px" viewBox="0 0 74 74" version="1.1" xmlns="http://www.w3.org/2000/svg" xmlns:xlink="http://www.w3.org/1999/xlink">
    <g id="Page-1" stroke="none" stroke-width="1" fill="none" fill-rule="evenodd">
        <g id="list_requests_other" transform="translate(-79.000000, -805.000000)" fill="#D75A4A" fill-rule="nonzero">
            <g id="noun_Cross_2114068" transform="translate(79.000000, 805.347368)">
                <path d="M36.8972243,0 C57.1762941,0 73.5483871,16.372093 73.5483871,36.5581395 C73.5483871,56.8372093 57.1762941,73.2093023 36.8972243,73.2093023 C16.7111778,73.2093023 0.339084771,56.8372093 0.339084771,36.5581395 C0.339084771,16.372093 16.7111778,0 36.8972243,0 Z M19.2228057,20.372093 L35.4088522,36.5581395 L19.2228057,52.744186 L20.7111778,54.2325581 L36.8972243,38.0465116 L53.0832708,54.2325581 L54.5716429,52.744186 L38.3855964,36.5581395 L54.5716429,20.372093 L53.0832708,18.8837209 L36.8972243,35.0697674 L20.7111778,18.8837209 L19.2228057,20.372093 Z M36.8972243,1.86046512 C17.7344336,1.86046512 2.19954989,17.3953488 2.19954989,36.5581395 C2.19954989,55.8139535 17.7344336,71.3488372 36.8972243,71.3488372 C56.1530383,71.3488372 71.687922,55.8139535 71.687922,36.5581395 C71.687922,17.3953488 56.1530383,1.86046512 36.8972243,1.86046512 Z" id="Shape"></path>
            </g>
        </g>
    </g>
</svg>