
<svg width="77px" height="77px" viewBox="0 0 77 77" version="1.1" xmlns="http://www.w3.org/2000/svg" xmlns:xlink="http://www.w3.org/1999/xlink">
    <g id="Page-1" stroke="none" stroke-width="1" fill="none" fill-rule="evenodd">
        <g id="list_requests_other" transform="translate(-77.000000, -614.000000)" fill="#7AC944" fill-rule="nonzero">
            <g id="Group-2" transform="translate(25.000000, 368.000000)">
                <g id="Listing">
                    <g id="checked" transform="translate(52.972973, 246.859649)">
                        <polygon id="Shape" points="30.735987 54.845614 58.6486486 26.3424742 57.0041277 24.5859649 29.9137265 52.039685 16.7796561 38.6876177 15.1351351 40.5184953 29.091466 54.845614"></polygon>
                        <path d="M37.8366554,75.6491228 C37.8366554,75.6491228 37.8378378,75.6491228 37.8390203,75.6491228 C47.9467685,75.6491228 57.44791,71.7130044 64.5947549,64.5700724 C71.7415998,57.4271404 75.6768579,47.9272654 75.6756754,37.8233794 C75.6756754,27.7194934 71.7404173,18.2208004 64.5935724,11.0778684 C57.44791,3.9349364 47.9467685,0 37.8390203,0 C37.8378378,0 37.8378378,0 37.8366554,0 C27.7289071,0 18.2277657,3.9349364 11.0809208,11.0790504 C3.93525835,18.2231645 -0.00118220305,27.7218575 2.66324396e-07,37.8257434 C2.66324396e-07,47.9296294 3.93525835,57.4283224 11.0821033,64.5712544 C18.2277657,71.7141864 27.7289071,75.6491228 37.8366554,75.6491228 Z M12.754115,12.7504232 C19.452804,6.05311184 28.3615283,2.36403509 37.8390203,2.36403509 C37.8402028,2.36403509 37.8402028,2.36403509 37.8413852,2.36403509 C47.3153299,2.36403509 56.2228717,6.05311184 62.9227432,12.7492412 C69.6226147,19.4465526 73.3119191,28.3518728 73.3107367,37.8233794 C73.3107367,47.296068 69.6214322,56.2013882 62.9227432,62.8986996 C56.2240542,69.596011 47.3153299,73.2850877 37.8390203,73.2850877 L37.8366554,73.2850877 C37.8354729,73.2850877 37.8354729,73.2850877 37.8342904,73.2850877 C28.3603458,73.2850877 19.452804,69.596011 12.7529325,62.8998816 C6.05424347,56.2025702 2.36375655,47.298432 2.36493902,37.8257434 C2.36375655,28.3530548 6.05424347,19.4477346 12.754115,12.7504232 Z" id="Shape"></path>
                    </g>
                </g>
            </g>
        </g>
    </g>
</svg>