
<svg width="90px" height="106px" viewBox="0 0 90 106" version="1.1" xmlns="http://www.w3.org/2000/svg" xmlns:xlink="http://www.w3.org/1999/xlink">
    <g id="Page-1" stroke="none" stroke-width="1" fill="none" fill-rule="evenodd">
        <g id="request_action-(2)" transform="translate(-136.000000, -630.000000)">
            <g id="file" transform="translate(136.000000, 630.000000)">
                <g id="Group">
                    <g id="pot-(1)" transform="translate(0.000000, 16.000000)">
                        <path d="M0,45 C0,69.8526562 20.1473438,90 45,90 C69.8526562,90 90,69.8526562 90,45 C90,20.1473437 69.8526562,0 45,0 C20.1473438,0 0,20.1473438 0,45 Z" id="Path" fill="#5F8AE4"></path>
                        <path d="M13.942793,35.4607227 L13.7879297,35.4607227 C15.9038086,35.5083594 17.1080859,36.559707 17.677793,38.2642578 L17.6823633,38.2642578 C17.1279492,36.5983789 15.967793,35.5535352 13.942793,35.4607227 Z M73.8441211,35.4607227 L73.6866211,35.4607227 C71.5589648,35.547207 70.4160352,36.4668945 69.9083789,38.2642578 L69.9110156,38.2642578 C70.4313281,36.4264648 71.6201367,35.5094141 73.8441211,35.4607227 Z" id="Shape" fill="#466575" fill-rule="nonzero"></path>
                    </g>
                    <path d="M12,1 L56.2471767,1 C60.9943044,5.77305017 64.5788549,9.3834476 67.0008281,11.8311923 C70.5950797,15.4636892 76.597362,17.2382895 78,22.8481133 C80.8203817,34.1281758 80.8203817,55.8454713 78,88 L12,88 L12,1 Z" id="Rectangle" fill="#FFFFFF"></path>
                    <path d="M30.1591538,52 C35.059792,53.255378 38.0067407,53.0404504 39,51.355217 C39.9932593,49.6699836 39.9932593,44.8849113 39,37 C43.7725878,35.2805786 47.3380889,35.2805786 49.6965034,37 C51.3052705,38.1728848 48.6504381,47.1293343 51.1286419,51.355217 C51.8984982,52.6679913 54.7137806,52.882919 59.5744893,52 L46,67 L30.1591538,52 Z" id="Rectangle" fill="#4979D5"></path>
                    <path d="M79.5067813,22.1123006 L57.7660379,0.4102 C57.5035379,0.1477 57.1266589,-4.26325641e-14 56.7555208,-4.26325641e-14 L14.3307928,0.0028 C12.0223007,0.0028 10,1.88132 10,4.19048 L10,85.2161796 C10,86.3864441 10.5892604,87.4871207 11.4177808,88.3169021 C12.2463006,89.1441604 13.4804008,89.6 14.65066,89.6 L75.668258,89.6 C76.7811166,89.6 77.9099382,89.1666978 78.6974382,88.3791978 C79.483539,87.5916978 79.9999994,86.5457618 79.9999994,85.4341583 L79.9999994,23.1020989 C79.9999994,22.7309608 79.7692813,22.3748006 79.5067813,22.1123006 Z M56.3167925,2.9617 L75.7525378,22.4 L56.2658007,22.4 C56.3861986,10.7132199 56.3919397,5.43242 56.3167925,2.9617 Z M77.1999994,85.4341583 C77.1999994,85.7938194 76.9706804,86.1457794 76.7171366,86.4001617 C76.4594004,86.6578979 76.0333773,86.8 75.668258,86.8 L14.65066,86.8 C14.2275808,86.8 13.6962803,86.6353607 13.3975206,86.3372978 C13.0980597,86.0371414 12.8000008,85.6392578 12.8000008,85.2161773 L12.8000008,4.19048014 C12.8000008,3.42552 13.55544,2.80280014 14.3204001,2.80280014 L53.4600596,2.80028 C53.5285204,6.33108014 53.4902979,16.9292201 53.4173937,23.7850193 C53.4132975,24.1589585 53.5755923,24.5191803 53.8387919,24.7844787 C54.1019915,25.050341 54.4768786,25.2 54.8508204,25.2 L77.1999994,25.2 L77.1999994,85.4341583 Z" id="Shape" fill="#4979D5" fill-rule="nonzero"></path>
                </g>
                <path d="M51.7214293,36.365839 C51.7214293,35.6112396 51.1103286,35 50.355593,35 L39.5767428,35 C38.8219699,35 38.2108717,35.6112396 38.2108717,36.365839 L38.2108717,50.3999973 L29.5661506,50.3999973 C29.0137454,50.3999973 28.5161506,50.7323575 28.3041911,51.2436375 C28.0922317,51.7535183 28.2098311,52.3415211 28.6008521,52.7311375 L44.0008495,68.1311375 C44.2675499,68.3977017 44.6161506,68.5316807 44.9661506,68.5316807 C45.3161506,68.5316807 45.6647513,68.3977017 45.9313422,68.1311375 L61.3313422,52.7311375 C61.7223311,52.3415211 61.8399306,51.7535183 61.6279685,51.2436375 C61.4161506,50.7323575 60.9184516,50.3999973 60.3661506,50.3999973 L51.7214293,50.3999973 L51.7214293,36.365839 Z M57.0684516,53.1316807 L44.9661506,65.2341206 L32.8637454,53.1316807 L39.5767429,53.1316807 C40.331345,53.1316807 40.9425499,52.52058 40.9425499,51.765839 L40.9425499,37.731678 L48.9897514,37.731678 L48.9897514,51.765839 C48.9897514,52.5205799 49.6008521,53.1316807 50.3555931,53.1316807 L57.0684516,53.1316807 Z" id="Shape" fill="#4979D5" fill-rule="nonzero"></path>
            </g>
        </g>
    </g>
</svg>