
<svg width="380px" height="365px" viewBox="0 0 380 365" version="1.1" xmlns="http://www.w3.org/2000/svg" xmlns:xlink="http://www.w3.org/1999/xlink">
    <g id="Page-1" stroke="none" stroke-width="1" fill="none" fill-rule="evenodd">
        <g id="surprise" transform="translate(-150.000000, -761.000000)">
            <g id="Group" transform="translate(150.000000, 761.000000)">
                <g id="gift-(1)" transform="translate(0.000000, 95.000000)">
                    <g id="pot-(1)" transform="translate(108.000000, 0.000000)">
                        <path d="M135,0 C60.4420312,0 0,60.4420312 0,135 C0,209.557969 60.4420312,270 135,270 C209.557969,270 270,209.557969 270,135 C270,60.4420312 209.557969,0 135,0 Z" id="Path" fill="#5F8AE4"></path>
                        <path d="M41.8283789,109.382168 L41.3637891,109.382168 C47.7114258,109.525078 51.3242578,112.679121 53.0333789,117.792773 L53.0470898,117.792773 C51.3838477,112.795137 47.9033789,109.660605 41.8283789,109.382168 Z M221.532363,109.382168 L221.059863,109.382168 C214.676895,109.641621 211.248105,112.400684 209.725137,117.792773 L209.733047,117.792773 C211.293984,112.279395 214.86041,109.528242 221.532363,109.382168 Z" id="Shape" fill="#466575" fill-rule="nonzero"></path>
                    </g>
                    <path d="M362.191311,150.285871 C362.191311,150.285871 324.116947,180.427828 302.700117,189.946419 C302.700117,189.946419 255.900626,215.32908 211.480039,216.916008 L142.470254,216.916008 C142.470254,216.916008 129.778552,214.53636 113.121018,225.641135 C110.74137,227.227319 109.155186,228.020783 106.775538,230.400431 C103.602427,232.780078 99.6365949,235.95319 96.4634834,239.919022 L40.9381213,159.010998 C40.9381213,159.010998 45.6974168,155.837886 52.0428963,150.285871 C53.6290802,148.699687 56.008728,147.112759 57.5956556,144.733112 C62.3549511,140.76728 67.1142466,135.214521 71.8735421,129.661761 C71.8735421,129.661761 101.222779,91.5873973 167.059452,114.590411 C213.066223,130.454481 218.618239,131.247945 218.618239,131.247945 C218.618239,131.247945 246.380548,134.421057 273.350137,134.421057 C273.350137,134.421057 295.560431,134.421057 294.766967,151.078591 C294.766967,156.63135 291.593855,161.390646 287.628023,165.356477 C282.075264,170.115773 271.763953,175.668532 252.726771,177.254716 C244.794364,178.04818 236.069237,178.04818 228.13683,177.254716 C207.513464,175.668532 182.923523,171.701957 178.164227,174.875068 C178.164227,174.875068 171.818748,179.634364 196.407945,182.807476 C196.407945,182.807476 214.651663,185.187123 247.174012,185.980587 C247.174012,185.980587 305.871742,183.600939 303.492094,142.353464 C303.492094,142.353464 324.11546,129.661761 336.013699,124.902466 C336.013699,124.902466 369.328767,105.07182 377.261174,117.763523 C378.055382,118.556986 387.573973,131.248689 362.191311,150.285871 Z" id="Path" fill="#FFD15C"></path>
                    <path d="M113.121761,225.641879 C110.742114,227.228063 109.15593,228.021526 106.776282,230.401174 C103.60317,232.780822 99.6373386,235.953933 96.464227,239.919765 L40.938865,159.011742 C40.938865,159.011742 45.6981605,155.83863 52.0436399,150.286614 C53.6298239,148.700431 56.0094716,147.113503 57.5963992,144.733855 L113.121761,225.641879 Z" id="Path" fill="#D7B354"></path>
                    <polygon id="Rectangle" fill="#BF392C" transform="translate(57.311212, 202.328174) rotate(145.470820) translate(-57.311212, -202.328174) " points="32.3271665 137.686879 82.2952567 137.686879 82.2952567 266.969469 32.3271665 266.969469"></polygon>
                    <circle id="Oval" fill="#FFD15C" cx="82.9790607" cy="237.540117" r="11.104775"></circle>
                </g>
                <g id="gift" transform="translate(157.000000, 0.000000)">
                    <path d="M165.826335,12.6185053 C161.977224,4.71459075 153.961566,0 144.413523,0 C122.651957,0 107.217794,23.5117438 99.6441281,38.3480427 C92.0512456,23.5245552 76.6427046,0.149466192 54.9238434,0.149466192 C41.1466192,0.149466192 31.1565836,9.96512456 31.1565836,23.2754448 C31.1565836,46.8811388 53.6718861,62.2839858 98.9338078,62.2839858 C144.19573,62.2839858 168.174377,42.4903915 168.174377,23.4690391 C168.167972,19.6939502 167.476868,15.9879004 165.826335,12.6185053 Z M58.7608541,36.0498221 C52.1715302,32.1131673 49.8234875,27.7039146 49.8234875,24.8761566 C49.8234875,21.2640569 53.6661922,18.6476868 58.9601423,18.6476868 C71.7160142,18.6476868 88.0341637,39.6 93.5209964,49.8519573 C78.8220641,48.7558719 63.7807829,39.0519573 58.7608541,36.0498221 Z M148.604982,28.233452 C145.297509,34.9103203 127.808541,48.2142349 105.959431,49.8455516 C111.471886,39.5935943 127.820641,18.6412811 140.377224,18.6412811 C145.235587,18.6412811 148.025623,20.7466192 148.997153,22.7145907 C149.769395,24.2846975 149.639146,26.1466192 148.604982,28.233452 Z" id="Shape" fill="#BF392C" fill-rule="nonzero"></path>
                    <path d="M199.323132,62.3145907 L0.0149466192,62.3145907 L0.0149466192,112.153737 L6.24341637,112.153737 L6.24341637,199.338078 L193.094662,199.338078 L193.094662,112.154448 L199.323132,112.154448 C199.32242,112.154448 199.323132,62.3145907 199.323132,62.3145907 Z" id="Path" fill="#FFD15C"></path>
                    <polygon id="Path" fill="#D7B354" points="6.24341637 112.148043 193.094662 112.148043 193.094662 124.604982 6.24341637 124.604982"></polygon>
                    <path d="M87.2120996,62.3145907 L112.125267,62.3145907 L112.125267,199.33879 L87.2120996,199.33879 C87.2120996,199.33879 87.2120996,62.3145907 87.2120996,62.3145907 Z" id="Path" fill="#BF392C"></path>
                    <rect id="Rectangle" fill="#AC3327" x="87.2120996" y="112.148043" width="24.9131673" height="12.4569395"></rect>
                </g>
            </g>
        </g>
    </g>
</svg>