
<svg width="270px" height="270px" viewBox="0 0 270 270" version="1.1" xmlns="http://www.w3.org/2000/svg" xmlns:xlink="http://www.w3.org/1999/xlink">
    <g id="Page-1" stroke="none" stroke-width="1" fill="none" fill-rule="evenodd">
        <g id="thanks_you" transform="translate(-240.000000, -812.000000)">
            <g id="Group" transform="translate(240.000000, 812.000000)">
                <g id="pot-(1)">
                    <path d="M135,0 C60.4420312,0 0,60.4420312 0,135 C0,209.557969 60.4420312,270 135,270 C209.557969,270 270,209.557969 270,135 C270,60.4420312 209.557969,0 135,0 Z" id="Path" fill="#5F8AE4"></path>
                    <path d="M41.8283789,109.382168 L41.3637891,109.382168 C47.7114258,109.525078 51.3242578,112.679121 53.0333789,117.792773 L53.0470898,117.792773 C51.3838477,112.795137 47.9033789,109.660605 41.8283789,109.382168 Z M221.532363,109.382168 L221.059863,109.382168 C214.676895,109.641621 211.248105,112.400684 209.725137,117.792773 L209.733047,117.792773 C211.293984,112.279395 214.86041,109.528242 221.532363,109.382168 Z" id="Shape" fill="#466575" fill-rule="nonzero"></path>
                </g>
                <g id="gift" transform="translate(25.000000, 25.000000)">
                    <path d="M182.408968,13.8803559 C178.174947,5.18604982 169.357722,0 158.854875,0 C134.917153,0 117.939573,25.8629181 109.608541,42.182847 C101.25637,25.8770107 84.3069751,0.164412811 60.4162278,0.164412811 C45.2612811,0.164412811 34.272242,10.961637 34.272242,25.6029893 C34.272242,51.5692527 59.0390747,68.5123843 108.827189,68.5123843 C158.615302,68.5123843 184.991815,46.7394306 184.991815,25.8159431 C184.984769,21.6633452 184.224555,17.5866904 182.408968,13.8803559 Z M64.6369395,39.6548043 C57.3886833,35.324484 54.8058363,30.474306 54.8058363,27.3637722 C54.8058363,23.3904626 59.0328114,20.5124555 64.8561566,20.5124555 C78.8876157,20.5124555 96.8375801,43.56 102.873096,54.837153 C86.7042705,53.6314591 70.1588612,42.957153 64.6369395,39.6548043 Z M163.46548,31.0567972 C159.82726,38.4013523 140.589395,53.0356584 116.555374,54.8301068 C122.619075,43.5529537 140.602705,20.5054093 154.414947,20.5054093 C159.759146,20.5054093 162.828185,22.8212811 163.896868,24.9860498 C164.746335,26.7131673 164.60306,28.7612811 163.46548,31.0567972 Z" id="Shape" fill="#BF392C" fill-rule="nonzero"></path>
                    <path d="M219.255445,68.5460498 L0.0164412811,68.5460498 L0.0164412811,123.36911 L6.86775801,123.36911 L6.86775801,219.271886 L212.404128,219.271886 L212.404128,123.369893 L219.255445,123.369893 C219.254662,123.369893 219.255445,68.5460498 219.255445,68.5460498 Z" id="Path" fill="#FFD15C"></path>
                    <polygon id="Path" fill="#D7B354" points="6.86775801 123.362847 212.404128 123.362847 212.404128 137.06548 6.86775801 137.06548"></polygon>
                    <path d="M95.9333096,68.5460498 L123.337794,68.5460498 L123.337794,219.272669 L95.9333096,219.272669 C95.9333096,219.272669 95.9333096,68.5460498 95.9333096,68.5460498 Z" id="Path" fill="#BF392C"></path>
                    <rect id="Rectangle" fill="#AC3327" x="95.9333096" y="123.362847" width="27.404484" height="13.7026335"></rect>
                </g>
            </g>
        </g>
    </g>
</svg>