
<svg width="255px" height="250px" viewBox="0 0 255 250" version="1.1" xmlns="http://www.w3.org/2000/svg" xmlns:xlink="http://www.w3.org/1999/xlink">
    <g id="Page-1" stroke="none" stroke-width="1" fill="none" fill-rule="evenodd">
        <g id="i_am_alfred" transform="translate(-245.000000, -838.000000)">
            <g id="Group-2" transform="translate(245.000000, 838.000000)">
                <g id="pot-(1)">
                    <path d="M125,0 C55.9648438,0 0,55.9648438 0,125 C0,194.035156 55.9648438,250 125,250 C194.035156,250 250,194.035156 250,125 C250,55.9648437 194.035156,0 125,0 Z" id="Path" fill="#5F8AE4"></path>
                    <path d="M38.7299805,101.279785 L38.2998047,101.279785 C44.1772461,101.412109 47.5224609,104.33252 49.1049805,109.067383 L49.1176758,109.067383 C47.5776367,104.439941 44.3549805,101.537598 38.7299805,101.279785 Z M205.122559,101.279785 L204.685059,101.279785 C198.774902,101.52002 195.600098,104.074707 194.189941,109.067383 L194.197266,109.067383 C195.642578,103.962402 198.944824,101.415039 205.122559,101.279785 Z" id="Shape" fill="#466575" fill-rule="nonzero"></path>
                </g>
                <g id="pencil" transform="translate(5.000000, 0.000000)">
                    <polygon id="Path" fill="#FFD15C" points="143.621514 185.250996 98.8700199 230.00249 39.0273904 241.971116 0 249.776394 7.80527888 210.749004 19.7739044 150.906375 64.5253984 106.15488"></polygon>
                    <polygon id="Path" fill="#FF7058" points="106.15488 183.169323 59.3217131 190.454681 66.6070717 143.621514 165.997012 44.2310757 205.545319 83.7793825"></polygon>
                    <g id="Group" transform="translate(19.422311, 24.402390)" fill="#F1543F">
                        <polygon id="Path" points="205.896912 79.1508964 79.4477092 205.6001 86.7325697 158.766932 186.123008 59.376992"></polygon>
                        <polygon id="Path" points="146.574701 19.8286853 47.184761 119.219124 0.351593625 126.503984 126.800797 0.0547808765"></polygon>
                    </g>
                    <polygon id="Path" fill="#334A5E" points="39.0273904 241.971116 0 249.776394 7.80527888 210.749004"></polygon>
                    <path d="M246.654382,67.6479084 L182.128486,3.12201195 C177.965637,-1.04083665 171.721116,-1.04083665 167.558267,3.12201195 L146.223108,24.4571713 L225.318725,103.552789 L246.653884,82.2176295 C250.817231,78.0552789 250.817231,71.810757 246.654382,67.6479084 Z" id="Path" fill="#40596B"></path>
                    <polygon id="Rectangle" fill="#F2F2F2" transform="translate(189.576335, 60.201460) rotate(135.000000) translate(-189.576335, -60.201460) " points="184.112493 4.26300205 195.040177 4.26300205 195.040177 116.139917 184.112493 116.139917"></polygon>
                </g>
            </g>
        </g>
    </g>
</svg>