
<svg width="270px" height="270px" viewBox="0 0 270 270" version="1.1" xmlns="http://www.w3.org/2000/svg" xmlns:xlink="http://www.w3.org/1999/xlink">
    <g id="Page-1" stroke="none" stroke-width="1" fill="none" fill-rule="evenodd">
        <g id="list_requests_empty" transform="translate(-227.000000, -506.000000)">
            <g id="Group-2" transform="translate(227.000000, 506.000000)">
                <g id="pot-(1)">
                    <path d="M135,0 C60.4420312,0 0,60.4420312 0,135 C0,209.557969 60.4420312,270 135,270 C209.557969,270 270,209.557969 270,135 C270,60.4420312 209.557969,0 135,0 L135,0 Z" id="Path" fill="#FFFFFF"></path>
                    <path d="M41.8283789,109.382168 L41.3637891,109.382168 C47.7114258,109.525078 51.3242578,112.679121 53.0333789,117.792773 L53.0470898,117.792773 C51.3838477,112.795137 47.9033789,109.660605 41.8283789,109.382168 L41.8283789,109.382168 Z M221.532363,109.382168 L221.059863,109.382168 C214.676895,109.641621 211.248105,112.400684 209.725137,117.792773 L209.733047,117.792773 C211.293984,112.279395 214.86041,109.528242 221.532363,109.382168 L221.532363,109.382168 Z" id="Shape" fill="#466575" fill-rule="nonzero"></path>
                </g>
                <g id="startup" transform="translate(18.000000, 12.000000)">
                    <path d="M171.796315,153.062749 L152.542829,152.542331 L153.063247,171.795817 C153.583665,203.017928 179.602092,228.515936 210.824203,229.556773 L230.077689,230.077191 L229.557271,210.823705 C228.515936,179.601594 203.017928,153.583167 171.796315,153.062749 Z" id="Path" fill="#F8B64C"></path>
                    <path d="M177,163.47012 L163.470618,162.949701 L163.991036,176.479084 C164.511454,198.85508 183.244522,217.588147 205.620518,218.108566 L219.1499,218.628984 L218.629482,205.099602 C218.109064,182.723606 199.375498,163.990538 177,163.47012 Z" id="Path" fill="#FFD15C"></path>
                    <path d="M249.851096,151.501494 C247.249502,146.818227 243.606574,142.655378 239.964143,139.01245 C230.59761,129.645916 219.149402,123.401394 206.660359,120.279382 C183.244024,114.555279 157.225598,120.799801 139.01245,139.01245 C120.799303,157.2251 114.555279,183.243526 120.279382,206.660359 C123.401394,218.628984 129.645916,230.597112 139.01245,239.963645 C142.65488,243.606076 147.338147,247.249004 151.501494,249.850598 C124.442231,250.891434 96.3426295,241.004482 75.5278884,220.189741 C58.875996,203.537849 49.5094622,183.243526 46.3874502,161.908367 C42.2246016,131.206673 52.1115538,99.4641434 75.5278884,76.0478088 C98.9442231,52.6314741 131.207171,42.7445219 161.388446,46.9073705 C182.723606,50.0293825 203.538347,59.3964143 219.669821,76.0478088 C241.00498,96.3426295 250.891932,124.442729 249.851096,151.501494 Z" id="Path" fill="#FF7058"></path>
                    <path d="M205.099602,152.021912 C190.529382,63.0393426 114.035359,-2.52689243 19.3281873,0.0747011952 L0.595119522,0.595119522 L0.0747011952,19.3281873 C-2.52689243,114.035359 63.0393426,190.529382 152.021912,205.099602 L205.099602,152.021912 Z" id="Path" fill="#F2F2F2"></path>
                    <g id="Group" fill="#40596B">
                        <path d="M111.433267,193.651394 C124.442231,198.85508 137.972112,202.49751 152.021912,205.099602 L204.579183,152.542331 C202.49751,138.49253 198.334661,124.962649 193.130976,111.953685 L111.433267,193.651394 Z" id="Path"></path>
                        <path d="M81.251992,8.40089641 C61.998506,2.67679283 41.1837649,-0.445717131 19.3281873,0.0747011952 L0.595119522,0.595119522 L0.0747011952,19.3281873 C-0.445717131,41.1837649 2.67629482,61.998506 8.40039841,81.251992 L81.251992,8.40089641 Z" id="Path"></path>
                    </g>
                    <path d="M152.021912,205.099602 C157.225598,206.140438 162.949701,206.660857 168.153386,207.181275 L206.660359,168.674303 C206.13994,162.950199 205.619522,157.746514 204.578685,152.542829 L152.021912,205.099602 Z" id="Path" fill="#F2F2F2"></path>
                    <circle id="Oval" fill="#40596B" cx="86.9098606" cy="87.1324701" r="40.0677291"></circle>
                    <circle id="Oval" fill="#84DBFF" cx="86.9098606" cy="87.1324701" r="28.0996016"></circle>
                    <path d="M69.2838645,73.4467131 C79.1708167,63.559761 94.7818725,63.559761 104.668825,73.4467131 C114.035359,82.813247 114.555777,97.9038845 105.709661,107.790837 C106.23008,107.270418 106.750498,107.270418 106.750498,106.75 C117.678287,95.8222112 117.678287,78.1299801 106.750498,67.2021912 C95.8227092,56.2744024 78.1304781,56.2744024 67.2026892,67.2021912 C56.2749004,78.1299801 56.2749004,95.8222112 67.2026892,106.75 C67.7231076,107.270418 68.2435259,107.270418 68.2435259,107.790837 C59.9173307,97.9038845 59.9173307,82.813247 69.2838645,73.4467131 Z" id="Path" fill="#54C0EB"></path>
                </g>
            </g>
        </g>
    </g>
</svg>