
<svg width="114px" height="103px" viewBox="0 0 114 103" version="1.1" xmlns="http://www.w3.org/2000/svg" xmlns:xlink="http://www.w3.org/1999/xlink">
    <g id="Page-1" stroke="none" stroke-width="1" fill="none" fill-rule="evenodd">
        <g id="email_blue" transform="translate(-448.000000, -932.000000)">
            <g id="Group" transform="translate(443.000000, 922.000000)">
                <g id="pot-(1)" transform="translate(11.028213, 10.542320)">
                    <path d="M50.7836991,0 C22.7368143,0 0,22.7368143 0,50.7836991 C0,78.8305839 22.7368143,101.567398 50.7836991,101.567398 C78.8305839,101.567398 101.567398,78.8305839 101.567398,50.7836991 C101.567398,22.7368143 78.8305839,0 50.7836991,0 Z" id="Path" fill="#F7F8FB"></path>
                    <path d="M15.7348134,41.146897 L15.560046,41.146897 C17.9478718,41.2006563 19.3069308,42.3871302 19.9498604,44.3107612 L19.9550181,44.3107612 C19.3293471,42.4307724 18.0200798,41.2516384 15.7348134,41.146897 Z M83.3350583,41.146897 L83.1573153,41.146897 C80.7561986,41.244497 79.466372,42.2823888 78.8934684,44.3107612 L78.896444,44.3107612 C79.4836305,42.2367628 80.8252327,41.2018466 83.3350583,41.146897 Z" id="Shape" fill="#466575" fill-rule="nonzero"></path>
                </g>
                <path d="M110.735295,100.744108 L69.9544914,57.0120499 C76.6358451,44.9415601 75.2300558,29.5665753 65.2354111,19.0723205 C53.1751679,5.91560362 32.6937977,5.20037842 19.5295514,17.4762367 C6.36530515,29.7520949 5.65007994,50.2334651 17.9259382,63.3977114 C27.7049679,73.8844368 42.9444371,76.3593064 55.444062,70.751838 L68.7601422,85.0317998 L79.3242499,85.4007066 L78.9553431,95.9648143 L89.5194508,96.333721 L89.150544,106.897829 L96.0167729,114.260958 L105.503012,114.592225 L110.18862,110.222824 L110.519886,100.736586 L110.735295,100.744108 Z M27.7970955,46.5943035 C22.9226889,41.5467076 23.0657557,33.3504144 28.1133479,28.4762141 C33.1609402,23.6020139 41.3572371,23.7448743 46.2314373,28.7924666 C51.1056375,33.8400588 50.9627771,42.0363557 45.9151849,46.9105559 C40.6483201,51.9967081 32.6677405,51.8574066 27.7970955,46.5943035 Z" id="Shape" fill="#FFD15C" fill-rule="nonzero" transform="translate(59.951596, 61.654801) rotate(-11.000000) translate(-59.951596, -61.654801) "></path>
            </g>
        </g>
    </g>
</svg>