
<svg width="270px" height="270px" viewBox="0 0 270 270" version="1.1" xmlns="http://www.w3.org/2000/svg" xmlns:xlink="http://www.w3.org/1999/xlink">
    <g id="Page-1" stroke="none" stroke-width="1" fill="none" fill-rule="evenodd">
        <g id="i_am_delighted" transform="translate(-245.000000, -838.000000)">
            <g id="Group" transform="translate(245.000000, 838.000000)">
                <g id="pot-(1)">
                    <path d="M135,0 C60.4420312,0 0,60.4420312 0,135 C0,209.557969 60.4420312,270 135,270 C209.557969,270 270,209.557969 270,135 C270,60.4420312 209.557969,0 135,0 Z" id="Path" fill="#5F8AE4"></path>
                    <path d="M41.8283789,109.382168 L41.3637891,109.382168 C47.7114258,109.525078 51.3242578,112.679121 53.0333789,117.792773 L53.0470898,117.792773 C51.3838477,112.795137 47.9033789,109.660605 41.8283789,109.382168 Z M221.532363,109.382168 L221.059863,109.382168 C214.676895,109.641621 211.248105,112.400684 209.725137,117.792773 L209.733047,117.792773 C211.293984,112.279395 214.86041,109.528242 221.532363,109.382168 Z" id="Shape" fill="#466575" fill-rule="nonzero"></path>
                </g>
                <g id="email" transform="translate(30.000000, 25.000000)">
                    <path d="M209.921355,201.288765 C209.921355,203.911255 209.047052,206.097012 207.298865,207.845199 C205.550259,209.156653 203.802072,210.030538 201.179163,210.030538 L8.8513745,210.030538 C6.66603586,210.030538 4.48027888,209.156235 2.73167331,207.845199 C0.983067729,206.096594 0.109183267,203.911255 0.109183267,201.288765 L0.109183267,73.2155378 L209.921355,73.2155378 L209.921355,201.288765 Z" id="Path" fill="#FFD15C"></path>
                    <path d="M207.298865,207.845199 C205.550259,209.156653 203.802072,210.030538 201.179163,210.030538 L8.8513745,210.030538 C6.66603586,210.030538 4.48027888,209.156235 2.73167331,207.845199 L105.01506,119.986554 L207.298865,207.845199 Z" id="Path" fill="#F8B64C"></path>
                    <path d="M209.921355,73.2155378 L180.197988,94.6338645 L110.69761,144.464522 C107.200817,147.087012 102.39257,147.087012 98.8957769,144.464522 L29.8325498,94.6338645 L0.109183267,73.2155378 L29.8325498,51.7972112 L94.5246813,5.46376494 L99.3329283,1.96697211 C102.829721,-0.655517928 107.637968,-0.655517928 111.134761,1.96697211 L115.943008,5.46376494 L146.977829,27.7563944 L162.276454,38.6839243 L180.197988,51.7972112 L209.921355,73.2155378 Z" id="Path" fill="#40596B"></path>
                    <path d="M180.197988,32.5646414 L180.197988,94.6338645 L110.69761,144.464522 C107.200817,147.087012 102.39257,147.087012 98.8957769,144.464522 L29.8325498,94.6338645 L29.8325498,14.2059562 C29.8325498,9.39770916 33.766494,5.46376494 38.574741,5.46376494 L152.65996,5.46376494 L180.197988,32.5646414 Z" id="Path" fill="#F2F2F2"></path>
                    <path d="M153.097112,25.5710558 C153.097112,29.505 156.156753,32.5646414 160.090697,32.5646414 L180.19757,32.5646414 L153.096693,5.46376494 L153.097112,25.5710558 Z" id="Path" fill="#CDD6E0"></path>
                    <path d="M130.8049,93.3228287 L137.798486,93.3228287 C135.613147,98.1310757 132.115936,101.627869 127.307689,104.250359 C122.062291,107.31 115.505857,108.621454 107.637968,108.621454 C100.207231,108.621454 93.6503785,107.31 88.4049801,104.68751 C83.1595817,102.06502 78.7884861,98.5678088 76.165996,93.3228287 C73.543506,88.5145817 72.2320518,82.8320319 72.2320518,77.1499004 C72.2320518,70.5934661 73.543506,64.9109163 76.6031474,59.2283665 C79.6627888,53.5458167 83.5967331,49.6118725 88.8421315,46.9893825 C94.0875299,44.3668924 100.206813,43.0554382 106.763665,43.0554382 C112.446215,43.0554382 117.691195,44.3668924 122.062291,46.5522311 C126.433386,48.7375697 129.930179,51.7976295 132.115936,56.1687251 C134.301275,60.1026693 135.612729,64.9109163 135.612729,69.7191633 C135.612729,75.4017131 133.864124,80.6466932 130.367331,85.4549402 C125.996235,91.5746414 120.313685,94.1971315 113.3201,94.1971315 C111.571494,94.1971315 109.823307,93.7599801 108.949004,93.3228287 C108.074701,92.4485259 107.200398,91.5742231 107.200398,90.2631873 C104.577908,92.8856773 101.517849,94.1971315 98.0210558,94.1971315 C94.0871116,94.1971315 91.0274701,92.8856773 88.8417131,90.2631873 C86.2192231,87.6406972 84.9077689,84.1434861 84.9077689,79.7723904 C84.9077689,74.526992 86.2192231,69.718745 89.2788645,64.910498 C92.7756574,59.6650996 97.5839044,57.0426096 103.266454,57.0426096 C107.200398,57.0426096 110.26004,58.7912151 112.445797,61.8508566 L113.3201,57.9169124 L122.499442,57.9169124 L117.254044,82.3948805 C116.816892,84.1434861 116.816892,85.0173705 116.816892,85.4545219 C116.816892,85.8916733 116.816892,86.3288247 117.254044,86.7659761 C117.691195,87.2031275 117.691195,87.2031275 118.128347,87.2031275 C119.002649,87.2031275 120.750837,86.3288247 122.499442,85.0177888 C124.684781,83.2691833 126.870538,81.0838446 128.181992,78.0242032 C129.493446,74.9645618 130.367331,71.904502 130.367331,68.8448606 C130.367331,63.1623108 128.181992,58.3540637 124.247629,54.8572709 C120.313685,50.9233267 114.631135,49.1747211 107.200398,49.1747211 C101.080697,49.1747211 95.8357171,50.4861753 91.4646215,53.1086653 C87.0935259,55.7311554 84.0338845,59.2283665 81.8481275,63.5994622 C79.6623705,67.9705578 78.7884861,72.7788048 78.7884861,78.0242032 C78.7884861,82.8324502 80.0999402,87.2035458 82.2852789,91.13749 C84.9077689,95.0714343 87.9678287,98.1310757 92.3389243,99.8796813 C96.7100199,101.628287 101.518267,102.502171 107.200817,102.502171 C112.446215,102.502171 117.254462,101.627869 121.188406,100.316833 C125.122351,98.5678088 128.181992,96.3824701 130.8049,93.3228287 Z M93.6503785,79.335239 C93.6503785,82.3948805 94.0875299,84.1434861 95.3989841,85.8916733 C96.7104382,87.2031275 98.0214741,88.077012 99.7700797,88.077012 C101.081534,88.077012 102.39257,87.6398606 103.266873,87.2027092 C104.141175,86.7655578 105.015478,85.891255 105.889363,85.0173705 C107.200817,83.7059163 108.07512,81.5205777 108.949004,78.8976693 C109.823307,76.2751793 110.260458,73.6522709 110.260458,71.4669323 C110.260458,68.8444422 109.823307,67.0958367 108.511853,65.3472311 C107.200398,64.0357769 105.889363,63.1618924 104.140757,63.1618924 C102.392151,63.1618924 100.206813,64.0361952 98.8953586,65.3472311 C97.146753,66.6586853 95.8357171,68.8440239 94.9614143,71.9036653 C94.0875299,74.526992 93.6503785,77.1494821 93.6503785,79.335239 Z" id="Shape" fill="#FF7058" fill-rule="nonzero"></path>
                </g>
            </g>
        </g>
    </g>
</svg>