
<svg width="302px" height="273px" viewBox="0 0 302 273" version="1.1" xmlns="http://www.w3.org/2000/svg" xmlns:xlink="http://www.w3.org/1999/xlink">
    <g id="Page-1" stroke="none" stroke-width="1" fill="none" fill-rule="evenodd">
        <g id="do_not_forget" transform="translate(-230.000000, -810.000000)">
            <g id="Group" transform="translate(216.000000, 777.000000)">
                <g id="pot-(1)" transform="translate(24.000000, 36.000000)">
                    <path d="M135,0 C60.4420312,0 0,60.4420312 0,135 C0,209.557969 60.4420312,270 135,270 C209.557969,270 270,209.557969 270,135 C270,60.4420312 209.557969,0 135,0 Z" id="Path" fill="#5F8AE4"></path>
                    <path d="M41.8283789,109.382168 L41.3637891,109.382168 C47.7114258,109.525078 51.3242578,112.679121 53.0333789,117.792773 L53.0470898,117.792773 C51.3838477,112.795137 47.9033789,109.660605 41.8283789,109.382168 Z M221.532363,109.382168 L221.059863,109.382168 C214.676895,109.641621 211.248105,112.400684 209.725137,117.792773 L209.733047,117.792773 C211.293984,112.279395 214.86041,109.528242 221.532363,109.382168 Z" id="Shape" fill="#466575" fill-rule="nonzero"></path>
                </g>
                <path d="M294.371326,268.013396 L185.962356,151.759009 C203.723622,119.671623 199.986565,78.7997886 173.417468,50.9025611 C141.357321,15.9276222 86.9110123,14.0263152 51.9160576,46.6596384 C16.9211029,79.2929616 15.0197958,133.739271 47.6531191,168.734225 C73.6490396,196.611437 114.160629,203.190465 147.388798,188.283945 L182.787378,226.244844 L210.870298,227.225521 L209.88962,255.308441 L237.97254,256.289118 L236.991863,284.372037 L255.244588,303.945689 L280.462172,304.826306 L292.918081,293.210984 L293.798698,267.993399 L294.371326,268.013396 Z M73.8939456,124.065166 C60.9361479,110.646974 61.3164672,88.8584941 74.73465,75.9012451 C88.1528327,62.9439962 109.941322,63.3237668 122.898571,76.7419495 C135.85582,90.1601322 135.476049,111.948621 122.057866,124.90587 C108.056784,138.426558 86.8417435,138.056248 73.8939456,124.065166 Z" id="Shape" fill="#FFD15C" fill-rule="nonzero" transform="translate(159.371326, 164.100988) rotate(-11.000000) translate(-159.371326, -164.100988) "></path>
            </g>
        </g>
    </g>
</svg>