
<svg width="75px" height="76px" viewBox="0 0 75 76" version="1.1" xmlns="http://www.w3.org/2000/svg" xmlns:xlink="http://www.w3.org/1999/xlink">
    <g id="Page-1" stroke="none" stroke-width="1" fill="none" fill-rule="evenodd">
        <g id="list_requests" transform="translate(-79.000000, -419.000000)" fill="#5F8AE4">
            <g id="clock-(2)" transform="translate(79.000000, 419.000000)">
                <path d="M55.2397959,20.3418367 L71.0204082,24.4897959 L75,8.70918367 L71.9693878,7.91326531 L69.3673469,17.8469388 C62.7704082,7.14795918 50.9540816,0.0306122449 37.4693878,0.0306122449 C16.7755102,0.0306122449 0,16.8214286 0,37.5306122 C0,58.2397959 16.7755102,75.0306122 37.4693878,75.0306122 C51.2755102,75.0306122 63.3367347,67.5612245 69.8418367,56.4336735 L66.8877551,55.0102041 C60.9183673,65.0357143 49.9897959,71.755102 37.4846939,71.755102 C18.5969388,71.755102 3.2755102,56.4336735 3.2755102,37.5306122 C3.2755102,18.627551 18.5816327,3.29081633 37.4693878,3.29081633 C50.0510204,3.29081633 61.0561224,10.0867347 66.994898,20.2193878 L56.0357143,17.3112245 L55.2397959,20.3418367 Z" id="Path"></path>
                <polygon id="Path" points="32.4489796 12.0459184 32.4489796 40.4387755 50.7857143 49.3622449 52.2091837 46.5 35.6479592 38.5255102 35.6479592 12.0459184"></polygon>
            </g>
        </g>
    </g>
</svg>